<?xml version="1.0" standalone="no"?>
<!DOCTYPE svg PUBLIC "-//W3C//DTD SVG 20010904//EN"
 "http://www.w3.org/TR/2001/REC-SVG-20010904/DTD/svg10.dtd">
<svg version="1.0" xmlns="http://www.w3.org/2000/svg"
 width="2100.000000pt" height="2100.000000pt" viewBox="0 0 2100.000000 2100.000000"
 preserveAspectRatio="xMidYMid meet">
<metadata>
Created by potrace 1.11, written by Peter Selinger 2001-2013
</metadata>
<g transform="translate(0.000000,2100.000000) scale(0.100000,-0.100000)"
fill="#000000" stroke="none">
<path d="M0 10500 l0 -10500 10500 0 10500 0 0 10500 0 10500 -10500 0 -10500
0 0 -10500z m7233 8081 c5 -5 -10 -11 -32 -15 -44 -7 -54 -20 -22 -29 26 -6
61 -64 61 -100 0 -16 -13 -62 -30 -104 -38 -93 -39 -129 -5 -145 19 -8 28 -8
42 3 17 13 17 13 2 -11 -28 -43 -64 -49 -119 -18 l-48 27 -6 -22 c-3 -12 -6
-40 -6 -63 0 -65 61 -112 182 -138 14 -3 51 -30 81 -58 49 -47 58 -63 81 -136
14 -45 30 -121 35 -167 11 -96 18 -111 52 -128 13 -7 25 -23 27 -35 2 -12 9
-22 15 -22 13 0 92 -71 117 -106 49 -66 110 -190 110 -222 0 -13 -9 -31 -19
-40 -14 -12 -27 -51 -42 -122 -12 -58 -30 -132 -40 -165 l-17 -60 54 -49 c65
-57 96 -116 149 -276 48 -148 68 -184 108 -196 27 -7 33 -15 38 -46 7 -43 74
-123 129 -154 29 -16 36 -26 38 -56 4 -43 -11 -53 -115 -82 -57 -15 -65 -15
-92 -1 -31 15 -32 20 -46 127 -8 60 -30 105 -57 113 -16 6 -19 13 -14 36 5 25
-6 44 -81 142 -48 61 -123 159 -166 217 -43 58 -89 116 -102 130 -47 49 -95
205 -95 306 0 44 -15 43 -39 -3 -11 -21 -56 -87 -101 -148 -123 -165 -124
-168 -115 -296 8 -127 2 -152 -71 -310 -55 -121 -75 -191 -55 -203 6 -4 11
-18 11 -32 0 -14 9 -43 21 -65 11 -23 19 -54 17 -72 -3 -29 -11 -35 -137 -99
-141 -71 -194 -84 -225 -52 -26 26 -18 55 29 100 24 24 51 57 59 72 8 16 31
50 51 76 19 25 35 52 35 59 0 7 -15 21 -34 30 -46 21 -62 50 -40 71 18 18 47
21 74 6 16 -9 19 -2 29 68 23 163 43 399 38 457 -2 33 0 71 5 85 5 14 16 66
23 115 8 50 28 130 45 179 17 48 29 90 27 92 -3 3 15 39 39 82 33 57 44 87 44
119 0 26 5 43 11 43 14 0 6 89 -11 120 -9 16 -21 20 -65 20 l-55 0 11 -27 c7
-19 7 -28 -3 -34 -6 -4 -19 -22 -27 -41 -22 -46 -50 -47 -89 -3 -18 19 -37 35
-42 35 -22 0 -40 34 -40 78 0 39 -4 49 -22 57 -15 6 -23 18 -22 33 1 26 7 26
-87 6 -86 -19 -114 -15 -158 22 -80 67 -68 234 24 326 53 52 99 72 171 73 51
0 66 -4 97 -28 l36 -27 15 21 c8 12 28 30 43 41 l28 18 -30 -6 c-27 -5 -36 0
-82 49 -46 48 -73 102 -73 145 0 6 -4 12 -9 12 -5 0 -7 9 -4 20 8 29 -25 26
-36 -2 -9 -23 -9 -22 -16 5 -5 20 -3 33 9 46 15 16 15 22 4 40 -11 18 -10 27
7 58 24 44 44 54 38 19 l-5 -25 56 20 c31 10 83 22 116 26 l60 6 -6 38 c-6 33
-2 44 26 79 31 39 68 64 120 81 28 9 100 2 113 -10z m334 -2366 c23 -10 69
-15 132 -15 l96 -1 -34 -27 -33 -28 27 -18 27 -18 -7 -112 c-6 -98 -5 -115 10
-129 9 -10 24 -17 33 -17 16 -1 16 -2 0 -14 -13 -9 -18 -27 -18 -62 0 -27 -7
-71 -15 -98 -17 -57 -19 -114 -5 -150 7 -19 16 -25 37 -25 15 1 55 -6 88 -15
74 -20 208 -28 256 -15 31 8 37 13 37 37 0 15 -10 38 -24 53 -14 14 -37 56
-53 94 -23 55 -27 74 -19 94 35 93 152 117 219 45 22 -23 24 -33 22 -104 -2
-57 -8 -90 -22 -119 -13 -24 -17 -42 -11 -46 6 -3 10 -14 10 -24 0 -14 14 -21
60 -31 33 -7 60 -17 60 -21 0 -5 4 -9 10 -9 5 0 34 -9 64 -20 40 -16 56 -27
58 -43 2 -13 25 -37 58 -60 68 -47 168 -134 180 -157 16 -31 -8 -87 -53 -125
-24 -20 -54 -53 -67 -75 -23 -37 -44 -47 -82 -41 -5 0 -8 -12 -8 -29 0 -16 -9
-45 -19 -64 -16 -29 -19 -46 -14 -110 3 -42 10 -79 14 -82 5 -2 4 -15 0 -27
-5 -12 -14 -44 -20 -71 -10 -40 -9 -52 2 -65 8 -9 18 -26 21 -38 4 -12 16 -25
28 -29 11 -3 48 -32 80 -63 33 -31 68 -59 79 -63 10 -4 19 -12 19 -18 0 -5 13
-10 28 -10 41 0 52 -17 52 -81 0 -35 9 -80 22 -114 l22 -58 -22 -18 c-21 -17
-102 -39 -142 -39 -23 0 -27 31 -7 48 6 6 11 23 11 39 -2 36 -55 152 -70 153
-7 0 -14 6 -17 13 -3 7 -22 18 -42 24 l-38 12 7 -76 c7 -80 27 -129 72 -183
33 -38 27 -44 -61 -59 -112 -20 -115 -16 -115 104 0 53 -18 164 -40 244 -9 34
-15 41 -36 41 -17 0 -30 10 -44 33 -16 28 -31 37 -80 50 -52 15 -62 22 -79 54
-10 21 -24 63 -31 93 -15 65 -21 380 -8 397 6 8 2 15 -12 23 -19 10 -21 17
-15 59 5 37 3 50 -9 60 -9 8 -16 21 -16 30 0 9 -15 37 -32 62 -18 25 -46 73
-62 106 -28 59 -30 62 -85 76 -31 9 -76 17 -101 19 -43 3 -45 2 -48 -25 -2
-19 7 -42 32 -76 60 -82 79 -135 71 -198 -4 -31 -13 -74 -21 -97 -12 -33 -13
-49 -3 -84 29 -106 -5 -241 -102 -399 -47 -77 -50 -86 -44 -127 5 -33 3 -51
-9 -68 -21 -30 -21 -118 0 -189 10 -30 20 -94 23 -144 l6 -90 36 3 c39 4 69
-16 86 -59 l11 -26 -94 -14 c-94 -15 -95 -15 -100 6 -3 11 0 33 5 48 9 24 7
30 -29 63 l-40 37 0 152 c0 128 -3 161 -21 214 -22 63 -22 65 -4 180 13 93 14
126 6 159 -14 49 -25 58 -55 42 -20 -10 -24 -25 -34 -114 -11 -93 -11 -107 7
-157 16 -47 17 -65 9 -110 -13 -71 -4 -145 31 -249 20 -57 27 -96 24 -119 -5
-29 -1 -38 35 -70 37 -34 62 -84 50 -97 -3 -2 -42 -12 -88 -20 -69 -13 -84
-14 -91 -2 -12 19 -11 86 2 123 10 28 9 36 -9 61 -18 24 -23 47 -26 129 -5
124 -19 189 -53 239 -17 26 -28 62 -34 107 -9 71 -30 122 -82 198 -28 41 -31
43 -44 26 -7 -11 -13 -25 -13 -33 0 -25 -73 -186 -101 -222 -15 -19 -61 -60
-103 -90 -59 -43 -74 -59 -71 -75 3 -11 14 -60 25 -109 22 -101 60 -189 96
-227 19 -20 24 -35 22 -64 -2 -27 2 -40 12 -43 21 -7 70 -61 70 -77 0 -13 -15
-18 -99 -31 -53 -8 -63 4 -55 64 6 37 3 47 -18 70 -16 17 -29 49 -36 84 -14
69 -45 132 -108 218 -42 56 -48 73 -52 123 -4 56 -3 60 27 88 43 39 84 131 89
200 7 96 -31 131 -67 62 -11 -21 -40 -65 -65 -98 -54 -71 -79 -138 -77 -209 0
-28 -8 -84 -19 -124 -21 -76 -25 -158 -11 -231 7 -32 5 -59 -6 -95 -21 -70
-20 -98 5 -132 45 -64 42 -69 -57 -82 -48 -7 -92 -12 -98 -12 -17 0 -1 74 25
113 25 37 25 39 12 107 -12 64 -12 72 9 119 25 58 26 96 6 171 -8 30 -15 91
-15 135 0 56 -6 96 -20 134 -16 40 -20 73 -19 131 2 65 -1 82 -20 114 -34 54
-38 132 -11 240 11 49 19 94 16 101 -2 7 -34 27 -69 43 -55 26 -67 36 -81 72
-17 43 -19 98 -6 140 7 23 8 22 9 -11 2 -88 30 -139 75 -139 21 0 22 3 18 60
-9 117 18 153 155 206 53 20 111 50 129 67 32 27 34 28 34 8 0 -11 -14 -36
-31 -55 -29 -33 -32 -56 -7 -56 6 0 41 -12 76 -26 40 -16 75 -24 92 -21 14 3
86 38 159 78 104 56 143 72 178 74 36 1 49 7 68 31 14 16 22 35 20 42 -3 8 -5
32 -5 55 l0 42 -21 -25 c-15 -18 -19 -20 -15 -7 3 10 6 24 6 32 0 7 22 41 49
75 46 61 48 64 38 102 -11 45 -30 57 -55 35 -9 -9 -30 -28 -47 -43 -41 -38
-87 -38 -120 1 -14 15 -25 34 -25 42 0 7 -6 23 -12 34 -12 18 -9 24 22 52 40
36 120 155 120 179 0 9 7 21 16 29 11 9 14 22 9 46 -5 27 -3 32 10 27 12 -5
15 1 15 27 0 19 5 41 10 49 9 13 11 13 19 0 9 -12 15 -11 48 8 45 26 117 29
170 7z m2121 -1762 c83 -51 124 -140 103 -223 -26 -99 -110 -159 -222 -160
l-66 0 5 -27 c3 -16 12 -38 20 -51 16 -25 11 -114 -8 -137 -9 -10 5 -26 62
-68 82 -61 238 -218 284 -287 17 -25 48 -83 69 -130 21 -47 45 -92 52 -101 7
-8 18 -30 24 -49 7 -18 35 -63 62 -99 42 -56 107 -177 130 -243 4 -11 17 -18
31 -18 20 0 27 -6 32 -27 9 -41 42 -124 64 -161 23 -37 42 -40 77 -12 14 11
33 20 42 20 26 1 110 87 105 108 -4 13 4 21 29 30 24 9 45 30 76 79 41 64 44
73 44 140 0 50 -5 79 -16 97 -23 35 -21 46 7 46 28 0 36 16 36 75 0 50 14 65
30 34 l12 -21 24 23 c18 16 23 30 19 46 -3 12 -1 24 4 27 9 6 132 -7 240 -26
l64 -11 -6 -126 c-3 -69 -11 -159 -18 -199 -11 -64 -10 -74 5 -90 9 -10 16
-26 16 -35 0 -10 38 -72 84 -140 46 -67 96 -149 110 -182 27 -59 27 -59 7 -75
-20 -15 -20 -16 9 -88 15 -40 40 -84 54 -97 32 -30 46 -64 46 -114 0 -30 4
-40 20 -44 14 -3 20 -14 20 -32 0 -39 16 -63 49 -70 19 -4 33 -15 37 -28 4
-12 15 -28 24 -34 10 -7 21 -25 25 -40 3 -16 13 -35 21 -44 21 -24 23 -92 2
-97 -9 -2 -22 4 -30 13 -35 42 -41 45 -87 45 -33 0 -56 6 -74 20 -14 11 -34
20 -44 20 -10 0 -37 18 -58 40 -21 22 -44 40 -50 40 -25 0 -86 22 -99 36 -8 8
-12 22 -9 31 5 13 17 14 70 9 48 -5 63 -3 63 6 0 7 -21 44 -46 81 -33 48 -48
81 -52 114 -3 28 -19 69 -42 107 -37 60 -38 61 -83 61 -25 0 -48 3 -52 7 -4 3
-36 -13 -71 -37 -88 -59 -159 -86 -362 -139 -134 -35 -178 -51 -192 -68 -11
-13 -19 -26 -20 -30 0 -19 -31 -6 -42 17 -10 22 -13 23 -27 12 -9 -8 -65 -19
-126 -26 -111 -12 -274 -49 -344 -77 l-38 -15 -79 48 c-51 32 -80 56 -82 69
-2 15 -17 25 -60 38 -105 32 -122 45 -173 131 -26 44 -91 171 -144 281 l-97
202 -49 5 c-65 8 -104 27 -104 52 0 17 6 20 42 19 37 -1 41 1 33 17 -5 9 -43
48 -85 86 -69 63 -94 104 -70 111 6 2 13 12 17 23 4 11 13 19 20 18 7 -1 21 1
32 6 11 5 21 3 26 -5 4 -7 15 -10 24 -7 10 4 21 -1 28 -12 6 -11 18 -17 25
-14 9 4 16 -3 20 -16 3 -11 12 -21 20 -21 8 0 17 -9 20 -20 3 -11 12 -20 19
-20 8 0 17 -7 20 -15 4 -8 14 -15 24 -15 11 0 22 -4 25 -10 3 -5 15 -10 26
-10 11 0 22 -7 25 -15 4 -8 15 -15 25 -15 16 0 19 -7 19 -42 0 -24 -7 -56 -16
-73 -15 -29 -15 -31 12 -50 127 -92 149 -120 159 -193 11 -82 7 -79 99 -86 70
-6 101 -3 194 19 61 14 120 25 131 25 18 0 19 3 11 24 -5 14 -30 59 -55 101
-36 59 -44 79 -35 90 9 10 6 30 -10 82 -12 37 -28 125 -35 195 -8 70 -21 139
-29 155 -8 15 -42 52 -77 82 -73 64 -151 179 -218 324 -48 102 -49 102 -100
120 -36 13 -55 26 -66 46 -8 16 -20 31 -27 34 -11 3 -11 9 0 26 8 15 9 21 1
21 -7 0 -9 10 -5 25 4 16 2 25 -5 25 -7 0 -9 11 -6 29 5 21 2 31 -9 35 -11 4
-14 14 -10 31 5 19 2 25 -10 25 -10 0 -14 7 -12 24 1 13 -4 31 -12 40 -11 14
-11 21 -1 37 6 11 9 28 6 38 -5 18 37 59 76 73 10 4 19 23 23 48 20 124 112
194 244 186 48 -3 74 -11 110 -33z m8298 -178 c4 -9 -7 -30 -25 -50 -31 -35
-39 -55 -23 -55 5 0 17 10 28 21 34 38 104 80 127 77 37 -5 31 -35 -19 -88
-26 -28 -45 -52 -42 -55 2 -3 32 17 65 44 73 59 100 74 119 67 15 -6 18 -33 8
-61 -4 -8 -26 -29 -51 -46 -54 -38 -51 -46 8 -19 53 24 82 25 99 5 17 -21 -9
-50 -59 -66 -35 -11 -91 -38 -120 -58 -12 -8 -7 -18 27 -55 46 -50 51 -66 26
-87 -14 -12 -24 -10 -65 14 -43 23 -60 27 -134 27 l-85 0 6 -39 6 -38 -120
-61 c-107 -55 -127 -70 -202 -149 -151 -160 -209 -237 -162 -218 9 4 40 15 68
25 68 24 117 50 127 66 9 16 43 19 52 5 3 -6 32 -10 65 -10 71 1 135 -25 173
-70 54 -64 23 -137 -80 -186 -35 -16 -65 -37 -68 -46 -4 -13 -16 -15 -53 -12
-51 5 -117 -8 -117 -22 0 -5 33 -34 72 -65 65 -50 77 -55 113 -52 22 2 47 -1
54 -8 11 -9 24 -6 57 10 23 12 73 26 111 32 38 5 87 15 109 23 22 8 52 12 67
9 27 -5 29 -3 62 83 26 66 35 103 35 148 0 58 1 60 25 57 28 -3 59 -37 60 -65
0 -31 31 -31 96 1 69 34 109 40 117 19 8 -21 -4 -33 -67 -69 -104 -58 -80 -77
42 -33 87 31 122 33 122 5 0 -32 -44 -66 -125 -95 -41 -15 -72 -31 -70 -35 3
-5 37 0 75 11 53 15 74 17 90 9 11 -6 20 -15 20 -20 0 -17 -44 -39 -103 -53
-70 -15 -75 -33 -9 -29 58 3 82 -10 66 -35 -6 -10 -22 -21 -35 -24 -38 -11
-225 -10 -254 1 -18 7 -33 7 -46 0 -18 -10 -18 -13 -3 -41 8 -17 14 -33 11
-35 -2 -2 -42 -9 -88 -15 -50 -7 -104 -21 -133 -36 -70 -36 -232 -93 -262 -93
-34 0 -61 15 -211 118 l-129 89 -205 -14 c-112 -8 -209 -16 -215 -18 -6 -2
-14 -27 -17 -56 -4 -29 -18 -76 -32 -104 -24 -51 -25 -53 -9 -99 16 -48 16
-73 -2 -209 -6 -43 -3 -52 30 -103 41 -62 54 -110 37 -142 -22 -42 -98 -27
-125 26 -7 15 -19 58 -25 96 -7 37 -27 106 -46 151 -38 91 -43 137 -20 191 14
33 13 37 -11 76 -14 22 -32 59 -40 81 -8 23 -22 48 -32 57 -9 9 -28 30 -42 46
-14 17 -32 33 -41 36 -8 3 -57 -5 -109 -18 -114 -28 -133 -29 -166 -8 -21 15
-34 15 -93 6 -73 -13 -150 -4 -216 23 -52 22 -57 69 -17 151 49 99 130 218
241 354 92 113 101 128 101 166 0 50 21 74 46 53 14 -11 18 -10 27 6 24 44
100 115 123 115 36 0 65 -68 42 -97 -5 -7 -7 -17 -3 -23 4 -7 -2 -18 -13 -26
-13 -9 -18 -21 -15 -34 3 -12 0 -20 -7 -20 -7 0 -9 -8 -5 -19 3 -11 2 -22 -4
-25 -5 -3 -7 -15 -4 -25 3 -10 0 -22 -5 -25 -6 -3 -8 -15 -5 -25 7 -29 -36
-53 -88 -49 -38 3 -44 0 -60 -27 -9 -16 -20 -40 -24 -52 -5 -20 -3 -23 22 -23
38 0 157 32 219 59 l50 22 48 -21 c26 -11 49 -20 51 -20 1 0 20 27 41 59 l39
60 69 -2 70 -2 34 62 35 61 51 -5 51 -5 25 53 c21 44 38 62 105 108 44 30 152
108 239 174 140 104 163 119 190 114 29 -4 33 -1 55 45 28 59 153 188 182 188
11 0 22 -7 25 -15z m-9843 -110 c72 -17 81 -24 104 -86 12 -36 26 -55 46 -66
26 -13 28 -18 23 -46 -4 -18 -11 -59 -15 -92 -4 -33 -11 -69 -15 -80 -5 -19 1
-23 61 -39 44 -12 108 -19 178 -20 98 -1 115 -4 162 -28 28 -15 60 -38 70 -51
18 -23 22 -24 69 -14 61 12 87 7 143 -31 38 -26 48 -28 83 -20 49 11 108 -4
163 -41 39 -27 157 -77 240 -102 51 -15 145 -70 145 -85 0 -6 -6 -30 -14 -52
-11 -29 -12 -50 -6 -73 17 -59 -21 -76 -84 -38 -32 18 -37 19 -51 6 -12 -12
-21 -13 -43 -5 -21 8 -31 23 -45 63 -9 28 -17 60 -17 70 0 16 -6 17 -72 9 -40
-5 -113 -9 -163 -9 -77 0 -98 4 -145 27 -48 23 -184 48 -263 48 -20 0 -111
-191 -96 -200 6 -4 8 -16 5 -27 -8 -26 47 -111 80 -123 25 -10 26 -14 21 -54
-7 -51 1 -61 58 -71 87 -16 176 -90 199 -164 8 -25 29 -75 47 -111 29 -55 34
-78 37 -150 5 -103 22 -132 84 -148 66 -17 133 -67 176 -132 41 -61 56 -105
71 -214 7 -47 17 -75 35 -97 14 -17 26 -35 26 -41 0 -6 10 -8 24 -4 27 7 36
-7 36 -53 0 -23 14 -39 73 -85 85 -67 120 -113 115 -153 -4 -35 -46 -52 -133
-52 -106 -1 -155 23 -155 76 0 10 -12 57 -26 105 -19 61 -33 89 -45 93 -11 4
-24 23 -30 45 -17 56 -60 95 -156 140 -154 72 -223 149 -223 247 0 48 -4 58
-37 93 -21 21 -74 57 -118 80 -44 23 -84 46 -90 51 -19 19 -22 6 -27 -97 l-5
-107 44 -40 c48 -44 93 -122 93 -160 0 -27 -27 -56 -56 -58 -79 -8 -122 25
-158 121 l-24 65 -46 7 c-97 14 -209 104 -264 213 -35 68 -36 74 -42 213 -4
108 -9 145 -19 152 -13 7 -13 11 0 26 12 15 11 18 -8 31 -17 11 -20 19 -13 32
5 10 5 23 0 32 -8 11 -13 12 -30 2 -30 -19 -52 -16 -116 18 l-58 30 -37 -20
c-72 -41 -191 -20 -249 43 -33 37 -35 122 -4 181 14 26 20 51 16 73 -3 22 4
49 22 86 14 29 26 68 26 87 0 47 40 103 90 126 22 10 42 26 45 36 4 9 13 17
22 17 15 0 163 146 163 161 0 4 -3 9 -7 11 -5 2 -19 26 -32 55 -17 37 -31 53
-50 58 -14 4 -32 11 -38 17 -18 14 -16 47 2 54 12 5 12 12 -5 44 -23 45 -14
92 25 139 22 25 23 30 10 41 -22 18 -18 28 8 23 12 -2 40 0 62 5 22 6 47 8 55
5 8 -2 41 -10 73 -18z m10812 -19 c173 -46 272 -172 263 -332 -6 -87 -41 -157
-111 -219 -73 -66 -141 -89 -262 -89 -122 0 -189 23 -264 90 -164 148 -134
392 64 509 85 51 213 67 310 41z m-3725 -174 c0 -5 11 -14 25 -20 13 -6 31
-25 40 -42 9 -18 23 -30 35 -30 11 0 20 -4 20 -10 0 -5 -9 -10 -20 -10 -13 0
-20 -7 -20 -20 0 -10 -6 -23 -13 -27 -8 -4 -22 -22 -32 -40 -19 -33 -39 -36
-87 -12 -22 12 -38 11 -38 0 0 -40 277 -42 299 -3 5 9 31 24 58 33 l48 17 -55
2 c-57 1 -56 4 15 31 37 15 41 16 88 17 24 1 36 6 32 12 -4 7 3 9 22 4 36 -8
66 -42 59 -68 -3 -13 6 -34 28 -60 18 -23 45 -65 61 -93 15 -29 32 -53 36 -53
5 0 15 -15 23 -32 7 -18 25 -44 40 -57 30 -29 32 -39 8 -66 -46 -51 -87 -57
-134 -17 -18 15 -43 33 -55 40 -26 14 -152 34 -165 26 -5 -3 -29 -34 -54 -67
-35 -49 -43 -67 -39 -89 5 -19 -1 -41 -21 -74 -24 -41 -26 -50 -16 -78 16 -44
15 -90 -3 -133 -8 -19 -15 -37 -15 -39 0 -2 23 -16 52 -30 29 -15 79 -48 111
-74 33 -26 72 -50 87 -53 21 -5 33 -18 50 -54 12 -26 44 -71 71 -100 39 -41
49 -59 49 -86 0 -22 6 -37 15 -41 19 -7 21 -76 3 -76 -7 0 -32 9 -55 20 -45
20 -55 43 -25 56 14 6 11 8 -13 13 -26 5 -32 13 -48 64 -12 36 -32 72 -55 96
-34 35 -42 39 -110 45 -41 3 -86 13 -102 21 -36 19 -41 19 -34 1 3 -8 19 -20
35 -26 55 -23 67 -80 21 -99 -15 -7 -56 -39 -90 -73 -62 -60 -63 -61 -109 -54
-27 3 -51 2 -58 -4 -8 -7 -35 -8 -76 -3 l-64 8 63 43 c52 34 67 40 83 32 10
-6 19 -16 19 -23 0 -7 10 0 23 15 12 15 44 35 71 45 102 37 84 80 -39 94 -100
11 -197 56 -216 100 -12 30 -14 31 -60 25 -75 -10 -281 18 -361 49 -16 7 -18
-2 -18 -94 0 -154 19 -179 160 -200 41 -7 82 -18 90 -26 9 -8 36 -15 59 -15
34 0 49 -6 72 -29 16 -16 29 -34 29 -40 0 -7 -28 -11 -75 -11 -62 0 -75 3 -75
16 0 12 -7 14 -29 9 -21 -4 -45 1 -84 19 -38 19 -70 26 -112 26 l-57 0 6 -32
c9 -47 28 -71 106 -133 56 -44 70 -61 65 -76 -5 -15 2 -23 38 -38 71 -30 67
-47 -11 -55 -52 -6 -68 -4 -81 9 -12 12 -13 19 -4 34 14 23 8 31 -24 31 -17 0
-29 10 -41 32 -24 45 -60 82 -111 116 -44 29 -45 30 -42 83 2 44 -4 66 -30
117 -17 35 -46 77 -63 93 -63 59 -129 110 -166 129 -79 40 -148 164 -136 245
9 60 48 135 92 178 l38 37 -60 0 c-67 0 -96 -15 -120 -61 -21 -41 -70 -69
-119 -68 -38 1 -39 1 -11 9 59 18 92 74 39 65 -16 -2 -67 -7 -114 -10 -72 -6
-99 -13 -155 -41 -82 -41 -159 -46 -211 -14 -44 27 -41 37 9 36 42 -1 44 0 90
69 60 90 95 120 160 140 122 37 161 32 368 -48 103 -39 108 -40 260 -44 85 -3
171 -4 190 -4 19 1 95 3 169 4 92 1 135 6 138 14 3 7 -13 14 -44 18 -124 15
-181 51 -189 120 -5 33 0 48 25 85 17 25 46 56 65 70 20 14 40 37 46 51 12 29
84 65 172 89 46 12 118 10 151 -4 14 -7 17 -3 17 26 0 44 22 75 60 83 16 4 32
11 35 16 8 11 25 12 25 1z m-9197 -268 c29 -15 86 -46 129 -71 42 -24 94 -54
116 -66 41 -23 276 -156 372 -211 47 -27 55 -37 58 -64 4 -35 22 -42 43 -16 8
10 26 14 53 12 28 -2 41 2 44 12 7 23 54 70 87 88 18 9 63 17 110 19 121 5
133 8 160 31 28 25 31 39 10 66 -45 59 7 180 90 212 84 32 163 7 213 -66 12
-18 36 -42 52 -52 39 -23 38 -36 -5 -44 -40 -7 -49 -38 -15 -49 28 -9 24 -34
-13 -82 -56 -73 -92 -96 -137 -90 -47 6 -51 -2 -11 -26 56 -33 81 -73 81 -131
0 -63 -28 -106 -93 -147 -54 -33 -100 -90 -131 -161 -13 -30 -36 -68 -50 -86
l-27 -31 76 -35 c41 -19 88 -44 104 -55 36 -26 51 -27 51 -2 0 10 10 30 21 45
34 43 76 33 117 -28 17 -26 32 -61 32 -77 0 -16 4 -29 9 -29 5 0 11 -10 14
-22 9 -38 32 -95 44 -109 6 -8 54 -95 106 -194 52 -99 104 -196 116 -215 11
-19 21 -43 21 -52 0 -12 13 -21 43 -28 55 -15 86 -35 97 -65 20 -53 -8 -65
-207 -86 -117 -12 -173 -8 -192 15 -13 15 -19 185 -7 204 9 16 -9 49 -37 63
-24 13 -131 105 -209 180 -46 44 -48 48 -48 103 l0 56 -42 -1 c-24 -1 -63 6
-87 15 -75 27 -77 25 -84 -56 -7 -88 -67 -310 -106 -394 l-29 -62 25 -11 c32
-15 28 -47 -10 -75 -38 -28 -155 -33 -257 -11 -86 18 -151 28 -300 45 -58 7
-122 16 -143 20 -33 7 -39 5 -62 -22 -14 -16 -25 -35 -25 -43 0 -19 -55 -75
-74 -75 -9 0 -25 15 -37 33 -16 26 -19 43 -14 92 3 33 8 99 11 147 8 117 17
126 117 108 39 -7 77 -15 82 -19 6 -4 30 -13 55 -20 25 -7 57 -16 72 -20 18
-6 55 -1 118 15 51 13 97 21 102 18 13 -8 138 -22 138 -16 0 3 -9 36 -21 75
-17 58 -21 101 -23 246 -2 112 -7 184 -14 198 -17 31 -15 96 4 144 16 39 16
43 -5 93 l-22 53 20 46 c25 59 24 163 -1 189 -10 10 -18 26 -18 36 0 29 -9 32
-41 14 -34 -20 19 -44 -469 217 -168 90 -308 169 -312 175 -26 39 11 118 66
142 41 18 39 18 99 -12z m6914 -375 c13 -13 111 -51 128 -50 6 0 29 3 52 7 57
9 85 0 135 -44 24 -21 63 -44 87 -52 l43 -14 -7 -60 c-10 -92 -43 -157 -98
-192 -43 -27 -46 -32 -47 -70 0 -37 5 -45 45 -78 25 -21 45 -42 45 -48 0 -5
21 -33 46 -62 26 -28 62 -85 81 -127 32 -70 38 -77 73 -88 54 -16 93 -51 145
-131 33 -52 48 -67 62 -64 12 3 30 -7 52 -30 24 -25 57 -43 110 -61 79 -26 94
-39 105 -92 9 -40 -21 -63 -82 -63 -40 0 -51 6 -112 60 -37 33 -75 60 -84 60
-9 0 -16 6 -16 13 0 21 -44 37 -134 49 -44 6 -92 16 -106 23 -36 19 -75 64
-97 110 l-18 40 -68 3 c-87 4 -87 -7 -4 -111 16 -20 39 -66 52 -102 12 -36 30
-74 39 -84 28 -31 56 -118 56 -174 0 -68 17 -168 35 -215 9 -20 28 -44 44 -53
20 -12 31 -29 39 -62 14 -53 31 -69 142 -127 56 -28 84 -49 91 -67 11 -28 5
-43 -18 -43 -10 0 -14 -6 -10 -20 5 -21 -15 -44 -28 -32 -5 4 -5 -1 -2 -10 8
-23 -1 -48 -18 -48 -8 0 -11 -8 -8 -20 4 -15 0 -20 -15 -20 -14 0 -22 -8 -24
-22 -5 -38 -36 -33 -79 11 -45 48 -115 187 -125 247 -6 38 -10 43 -59 63 -58
24 -69 43 -54 94 12 43 -19 89 -113 164 -153 123 -191 177 -204 291 -10 96
-44 129 -159 152 -33 7 -85 25 -115 40 -30 16 -67 32 -82 35 -17 3 -34 17 -43
34 -22 44 -57 180 -52 202 4 15 0 19 -18 19 -13 0 -28 8 -34 18 -8 15 -23 17
-112 15 -56 -1 -104 -4 -106 -6 -2 -2 3 -17 12 -33 21 -41 19 -71 -10 -132
-14 -30 -25 -59 -25 -66 0 -7 29 -36 64 -64 81 -64 120 -114 111 -141 -8 -28
-89 -79 -154 -98 -78 -22 -160 -13 -244 27 -76 37 -167 113 -167 139 0 10 12
29 28 44 31 30 139 87 165 87 28 0 32 28 12 105 -13 54 -15 77 -7 92 11 20 0
43 -21 43 -5 0 -21 9 -35 21 -26 20 -26 20 -42 1 -29 -37 -68 -55 -104 -48
-67 13 -108 70 -74 104 19 19 39 14 65 -14 13 -14 31 -24 41 -22 23 4 27 44 7
74 -15 23 -17 23 -45 9 -39 -20 -114 -20 -135 2 -19 18 -13 78 10 102 12 12
18 9 43 -18 l30 -33 16 23 c30 43 12 109 -34 126 -20 8 -30 18 -30 32 0 20 9
25 38 22 7 -1 26 9 42 23 17 13 39 27 49 31 11 3 23 15 26 26 4 11 18 24 31
29 20 8 24 16 22 42 -3 37 20 49 45 23 20 -20 71 -19 88 1 12 15 11 19 -9 32
-27 18 -28 28 -2 42 13 7 26 7 38 1 12 -6 23 -5 37 5 10 8 33 14 49 14 49 0
60 12 52 58 -5 32 -3 41 10 46 20 8 43 -10 55 -41 7 -19 17 -22 66 -25 64 -3
79 2 129 48 57 51 142 68 209 40 40 -17 89 -14 130 8 36 19 47 20 62 5z
m-1429 -314 c148 -63 165 -265 29 -349 -75 -46 -173 -37 -241 23 -60 53 -76
179 -30 246 14 21 35 46 47 56 46 39 133 49 195 24z m2437 -76 c219 -40 336
-250 239 -429 -44 -80 -114 -128 -218 -150 -76 -16 -148 -6 -223 29 -112 53
-173 138 -181 252 -4 56 -1 75 20 121 43 94 131 160 235 178 68 11 64 11 128
-1z m-5979 -152 c178 -131 209 -328 77 -486 -22 -26 -38 -35 -69 -38 -34 -3
-50 3 -100 36 -93 62 -154 164 -154 257 0 55 38 158 80 217 53 74 81 76 166
14z m8272 -111 c15 -8 49 -41 75 -74 48 -59 49 -60 75 -46 64 33 76 25 273
-182 86 -91 147 -165 165 -200 l29 -55 -25 -21 c-33 -27 -93 -20 -168 19 -31
17 -70 33 -87 36 -16 4 -61 13 -99 22 l-69 15 -306 -162 c-294 -155 -359 -198
-361 -237 0 -8 -7 -21 -15 -30 -43 -48 -52 -59 -58 -74 -4 -10 -17 -21 -30
-26 -13 -5 -40 -20 -60 -34 -63 -43 -203 -88 -293 -94 -95 -7 -108 3 -74 49
28 38 17 48 -61 48 -31 0 -58 3 -62 6 -3 3 -28 7 -55 9 -27 2 -107 18 -179 35
l-130 32 -45 -20 c-45 -20 -45 -20 -50 -80 -7 -69 -45 -152 -109 -237 -29 -39
-39 -60 -34 -75 6 -19 14 -20 166 -20 l161 0 29 -29 c16 -16 29 -39 29 -50 0
-24 6 -25 40 -6 41 23 79 19 86 -9 8 -34 3 -40 -76 -87 -39 -23 -70 -47 -70
-54 0 -15 -75 -85 -91 -85 -6 0 -20 -11 -31 -25 -11 -14 -30 -25 -43 -25 -15
0 -41 -18 -72 -50 -26 -27 -55 -50 -63 -50 -8 0 -20 -10 -25 -22 -12 -28 -47
-34 -77 -14 -20 14 -24 14 -43 -3 -11 -10 -162 -109 -335 -221 -173 -112 -344
-222 -379 -246 -53 -35 -68 -41 -84 -33 -27 15 -16 60 34 134 38 56 56 70 247
190 492 308 472 294 460 314 -6 10 -8 26 -5 35 7 18 84 57 153 77 23 7 45 20
48 28 3 9 9 22 12 29 8 16 -112 17 -122 1 -5 -9 -62 -10 -213 -5 -113 3 -221
9 -240 13 l-34 6 32 -29 32 -29 -21 -62 c-16 -46 -32 -71 -63 -98 -109 -94
-110 -96 -98 -108 6 -6 11 -21 11 -34 0 -18 -6 -23 -25 -23 -15 0 -39 7 -56
15 -26 14 -34 14 -76 0 -46 -16 -48 -16 -102 12 -93 47 -153 162 -116 220 9
13 37 39 63 56 26 18 65 51 86 75 33 34 46 42 76 42 43 0 95 45 84 73 -3 10
-1 24 6 32 8 10 12 40 11 79 -2 81 19 137 101 275 46 77 91 133 171 215 59 61
110 118 112 127 3 9 20 20 38 25 22 7 44 27 74 69 23 33 69 89 101 125 l60 65
20 -21 c17 -18 36 -22 128 -27 251 -14 520 -73 612 -133 13 -8 32 -12 42 -9
12 4 36 -3 61 -18 51 -31 83 -21 104 30 8 20 25 37 42 44 86 34 193 89 237
122 28 20 58 37 66 37 9 0 30 27 51 65 28 53 43 69 84 91 73 39 95 62 95 100
0 27 7 38 35 57 20 14 52 44 72 67 32 37 80 68 106 70 4 0 20 -6 35 -14z
m-4517 -179 c139 -74 107 -284 -48 -313 -56 -10 -104 5 -144 45 -88 87 -65
222 45 272 55 25 94 24 147 -4z m3701 -27 c32 -10 84 -33 114 -51 44 -27 54
-38 54 -60 0 -55 -118 -169 -215 -207 -93 -37 -223 -32 -320 12 -117 54 -142
108 -82 183 111 139 264 181 449 123z m-4457 -240 c3 -5 14 -10 23 -10 10 0
30 -23 48 -54 112 -191 109 -373 -6 -499 -59 -64 -165 -125 -196 -112 -10 4
-25 9 -32 11 -25 5 -50 35 -86 102 -105 201 -54 392 140 522 76 50 98 58 109
40z m-3605 -82 c72 -50 95 -116 65 -194 -44 -114 -204 -134 -276 -33 -35 49
-37 118 -6 172 15 25 40 51 59 60 49 24 118 22 158 -5z m5456 -56 c107 -54
150 -120 171 -259 19 -130 43 -171 165 -284 l100 -92 -21 -21 -21 -20 -32 30
c-18 16 -61 55 -95 87 -92 86 -145 107 -268 107 -116 0 -158 15 -228 79 -89
83 -117 214 -63 305 27 45 44 60 101 83 43 18 143 10 191 -15z m-4318 -42 c39
-27 83 -67 99 -87 54 -74 81 -101 90 -92 8 8 93 -2 146 -17 22 -7 22 -53 2
-184 -8 -52 -15 -99 -15 -104 0 -11 -130 0 -143 13 -6 6 -16 5 -28 -2 -13 -8
-52 -7 -156 7 -206 27 -287 45 -366 85 -63 32 -72 40 -79 71 -16 72 10 191 58
263 l24 37 78 0 c74 0 80 2 107 30 46 48 94 43 183 -20z m-3850 -25 c38 -16
112 -81 112 -99 0 -5 11 -21 24 -35 13 -15 31 -56 41 -92 l17 -66 55 -6 c35
-4 63 -1 75 6 16 9 22 9 25 0 3 -8 22 -13 46 -13 53 0 119 -30 156 -70 21 -23
46 -36 97 -49 90 -23 135 -47 127 -66 -3 -10 14 -36 50 -74 87 -91 96 -172 26
-236 -47 -42 -97 -47 -159 -15 -50 25 -52 25 -38 -5 6 -14 23 -27 39 -30 35
-8 49 -31 49 -83 0 -49 30 -83 56 -61 14 11 18 10 30 -6 8 -10 14 -24 14 -29
0 -6 24 -23 53 -38 105 -56 257 -204 257 -253 0 -30 62 -145 92 -171 17 -13
51 -36 76 -50 26 -15 66 -40 89 -56 23 -15 61 -32 85 -37 68 -14 125 -45 233
-126 55 -41 115 -82 133 -90 42 -21 148 -38 188 -30 23 4 38 0 59 -17 l27 -21
92 21 c143 34 177 37 231 17 35 -14 45 -22 42 -36 -3 -10 1 -20 9 -23 16 -6
19 -46 5 -46 -6 0 -9 -12 -8 -27 1 -20 -4 -31 -20 -38 -12 -5 -24 -20 -28 -32
-3 -15 -13 -23 -28 -23 -12 0 -28 -9 -35 -20 -9 -15 -19 -19 -36 -14 -16 4
-25 1 -30 -11 -3 -10 -15 -16 -28 -14 -13 1 -31 -1 -40 -5 -10 -5 -29 -1 -45
7 -62 32 -221 107 -268 125 -76 31 -156 42 -294 42 -69 0 -146 5 -169 11 -58
13 -153 78 -195 134 -31 39 -36 43 -53 31 -65 -45 -192 -63 -408 -59 -126 3
-191 1 -206 -7 -21 -11 -21 -11 10 -40 16 -15 30 -32 30 -38 0 -18 -28 -33
-52 -27 l-25 6 10 -61 c13 -81 3 -93 -76 -84 -51 6 -56 9 -59 33 -2 17 -8 25
-19 23 -21 -3 -44 23 -29 33 15 9 12 35 -5 35 -18 0 -20 21 -3 38 9 9 8 15 -7
26 -12 8 -16 19 -11 31 4 12 0 23 -14 32 -12 8 -19 21 -16 29 3 8 -1 14 -9 14
-8 0 -16 6 -17 13 -2 22 -5 32 -13 51 -6 15 -1 25 26 47 46 38 60 40 109 18
23 -11 53 -19 66 -19 12 0 26 -4 29 -10 9 -15 46 -11 83 9 l34 17 -49 39
c-138 113 -205 193 -234 280 -14 45 -19 50 -47 53 -24 3 -32 8 -32 24 0 18 -4
19 -39 13 -31 -5 -41 -3 -49 11 -8 15 -13 13 -46 -19 -22 -23 -55 -42 -88 -52
-47 -14 -53 -14 -70 2 -33 30 -76 102 -83 141 -9 48 -62 136 -89 148 -16 7
-22 20 -24 54 -2 25 -11 53 -20 63 -13 14 -14 22 -4 37 9 15 6 28 -18 72 -35
63 -36 71 -11 145 11 32 26 83 35 113 8 30 31 81 51 114 54 91 46 125 -50 190
-22 15 -26 24 -22 50 3 21 -3 45 -19 76 -29 54 -29 66 -5 104 40 60 165 86
249 51z m1037 -20 c261 -66 435 -271 435 -514 0 -59 -2 -66 -31 -92 -72 -64
-297 -40 -447 47 -70 41 -162 140 -199 214 -63 126 -95 322 -55 337 9 4 24 13
32 21 18 18 173 10 265 -13z m4899 -11 c56 -36 40 -98 -38 -150 -34 -22 -66
-54 -81 -81 l-26 -44 20 -32 c11 -18 55 -66 98 -108 65 -64 85 -77 121 -83 45
-7 114 -37 144 -63 15 -13 20 -12 50 10 18 14 53 35 78 47 25 13 58 33 73 46
34 28 44 29 86 8 21 -11 46 -14 69 -11 24 4 44 1 55 -8 17 -12 25 -9 79 31 47
34 69 44 99 44 21 0 41 5 44 10 8 14 85 13 85 -1 0 -6 -14 -29 -31 -50 -30
-38 -32 -39 -55 -24 -22 14 -25 13 -47 -9 -14 -14 -41 -28 -61 -31 -20 -4 -39
-12 -43 -18 -4 -6 4 -8 23 -4 16 3 39 0 52 -7 27 -14 22 -21 -45 -55 l-42 -21
-19 25 c-11 14 -23 25 -27 25 -15 0 -134 -129 -167 -180 -48 -76 -100 -120
-142 -120 -29 0 -34 -4 -46 -39 -14 -42 -37 -80 -122 -198 -87 -121 -87 -121
-43 -178 20 -27 50 -75 66 -107 31 -62 67 -93 97 -84 10 4 32 24 48 46 41 55
66 67 98 46 14 -9 36 -16 49 -16 13 0 31 -8 41 -19 18 -20 14 -27 -31 -50 -27
-14 -63 1 -63 25 0 29 -25 8 -73 -61 -26 -38 -53 -72 -60 -77 -19 -12 -46 1
-82 40 -18 20 -36 34 -39 31 -8 -8 40 -98 69 -129 13 -14 28 -44 33 -66 10
-45 53 -108 84 -125 14 -8 27 -5 51 9 18 11 44 22 60 26 32 8 33 1 12 -72 -18
-58 -30 -63 -90 -38 -21 9 -37 11 -40 5 -4 -5 -17 -9 -30 -9 -19 0 -31 13 -61
71 -21 39 -48 78 -62 87 -47 33 -62 52 -62 80 0 16 -17 55 -39 89 -43 67 -68
80 -204 107 -93 19 -126 35 -178 87 -33 33 -39 36 -39 18 0 -41 46 -103 90
-122 21 -8 22 -11 7 -14 -10 -3 -31 0 -47 6 -24 8 -30 7 -30 -4 0 -8 -10 -30
-22 -51 -18 -30 -20 -41 -11 -65 15 -38 7 -37 -17 4 -17 28 -20 29 -20 10 0
-12 9 -59 20 -104 19 -81 19 -83 1 -125 -20 -45 -45 -64 -82 -64 -18 0 -20 3
-11 12 20 20 14 43 -29 97 -46 58 -69 120 -62 169 10 64 -25 28 -46 -48 -9
-34 -9 -34 -10 18 -1 72 17 107 111 210 104 114 109 124 106 225 -2 77 0 87
30 141 18 32 31 63 29 69 -2 7 4 28 13 47 10 19 21 46 25 59 l8 25 -32 -27
c-38 -32 -71 -42 -107 -33 -37 10 -113 77 -114 101 -1 11 -14 52 -29 90 -20
48 -26 75 -20 87 18 34 10 56 -28 75 -31 15 -39 24 -41 51 -4 37 16 67 52 78
11 4 27 14 34 23 12 15 13 15 8 -1 -3 -10 4 -23 20 -33 40 -26 74 -58 74 -69
0 -5 -9 -19 -20 -31 -34 -36 3 -83 37 -49 12 12 15 33 14 85 -2 57 1 69 13 69
10 0 16 9 16 21 0 14 -5 19 -13 16 -10 -4 -18 11 -26 45 -11 42 -16 49 -33 45
-15 -4 -18 -2 -13 11 13 30 23 93 18 112 -3 10 3 33 14 51 10 19 18 41 18 49
0 18 56 26 83 11 20 -11 105 12 133 36 8 7 22 13 30 13 8 1 34 12 59 25 53 29
73 30 104 9z m-643 -67 c22 -15 39 -38 49 -65 13 -37 13 -47 0 -84 -21 -61
-69 -91 -134 -85 -41 4 -55 11 -83 41 -28 30 -33 43 -33 85 0 107 113 168 201
108z m2032 -4 c18 -9 98 -60 178 -114 80 -53 177 -113 216 -132 91 -47 249
-101 395 -137 178 -43 217 -64 326 -178 103 -107 188 -242 218 -347 21 -75 14
-220 -16 -316 l-20 -67 26 -57 c15 -32 29 -77 32 -100 l4 -42 -318 -221 -319
-220 -27 42 c-15 22 -36 63 -45 89 -9 26 -25 55 -35 64 -16 15 -20 15 -35 1
-44 -39 -82 -45 -257 -41 -157 4 -173 6 -219 30 -28 13 -92 65 -143 114 -81
76 -98 88 -126 87 -35 -1 -109 31 -143 63 -19 17 -25 17 -65 5 -178 -53 -275
-13 -320 130 -43 140 -15 259 77 329 57 44 117 54 188 31 28 -9 63 -16 77 -16
43 0 91 -42 140 -124 42 -69 54 -82 100 -104 29 -13 61 -31 70 -39 32 -29 188
-54 230 -38 9 4 13 29 12 93 l0 87 -40 1 c-22 0 -48 5 -58 11 -14 7 -32 5 -70
-9 -98 -38 -228 -1 -274 78 -20 35 -23 50 -20 134 4 113 28 167 95 213 33 24
52 30 95 30 88 0 193 -62 218 -127 5 -15 17 -26 26 -26 20 0 54 -28 54 -45 0
-14 38 -50 64 -59 15 -5 17 -3 12 16 -22 71 -25 102 -17 160 8 59 7 65 -17 96
-14 18 -30 31 -36 29 -6 -2 -21 -22 -34 -45 -15 -27 -30 -42 -43 -42 -32 0
-111 45 -152 86 -28 28 -46 38 -70 39 -28 0 -36 7 -62 52 -16 29 -35 50 -42
48 -18 -6 -43 23 -69 82 -13 29 -29 53 -36 53 -7 0 -28 -9 -45 -20 -18 -11
-33 -16 -33 -11 0 11 104 176 149 236 60 79 142 165 158 165 7 0 28 -7 46 -17z
m-4450 -114 c12 -6 43 -33 69 -60 49 -51 68 -60 68 -34 0 25 20 17 62 -25 26
-26 38 -45 34 -55 -9 -25 48 -43 175 -56 63 -6 155 -17 204 -24 50 -8 133 -17
185 -20 135 -9 179 -21 186 -54 3 -14 13 -41 21 -60 9 -19 20 -71 25 -115 5
-45 15 -91 21 -104 13 -28 -1 -91 -38 -164 -14 -28 -22 -56 -18 -66 4 -9 31
-49 60 -89 48 -62 62 -74 116 -96 34 -14 85 -36 112 -48 92 -43 95 -42 132 28
18 34 33 66 33 70 0 4 -17 16 -38 26 -89 43 -102 52 -102 73 0 12 7 24 15 28
10 4 13 14 9 34 -5 23 -1 30 21 40 23 11 30 10 44 -2 11 -10 21 -12 34 -5 13
8 28 4 57 -12 22 -13 41 -27 41 -33 1 -6 3 -21 4 -33 7 -67 19 -115 45 -181
37 -91 37 -112 3 -152 -17 -21 -22 -34 -15 -39 36 -22 47 -103 18 -140 -8 -10
-2 -20 24 -42 19 -16 42 -29 51 -29 8 0 26 -11 39 -25 19 -21 33 -25 77 -25
29 0 53 -3 53 -6 0 -16 -94 -136 -132 -168 -57 -49 -78 -53 -130 -23 -29 18
-52 24 -71 20 -36 -7 -57 12 -57 52 0 23 -6 35 -25 45 -25 13 -27 13 -265 -15
-25 -3 -76 -7 -115 -9 -38 -1 -96 -8 -128 -15 -51 -11 -61 -11 -77 4 -15 14
-28 15 -104 5 -48 -6 -104 -8 -124 -4 -25 4 -88 44 -199 125 -138 102 -166
119 -199 119 -25 0 -53 10 -85 31 -42 27 -47 33 -37 49 9 14 9 28 0 57 -16 52
-1 65 77 67 34 1 65 -1 71 -4 18 -11 60 -81 60 -101 0 -28 49 -54 175 -94 73
-23 123 -45 148 -66 36 -30 40 -31 95 -23 55 9 57 10 60 43 l3 34 55 -7 54 -6
0 44 c0 40 -4 48 -42 81 -66 57 -138 95 -180 95 -27 0 -36 4 -32 13 6 16 -28
34 -81 42 -174 27 -346 101 -371 161 -7 17 -29 43 -49 59 l-37 28 -58 -18
c-90 -27 -134 -18 -321 65 -164 74 -198 82 -262 65 -23 -6 -33 -3 -56 19 -21
20 -44 29 -91 36 -81 12 -179 59 -203 99 -16 28 -10 50 12 37 5 -3 8 2 7 12 0
9 6 17 14 17 8 0 18 9 21 20 3 12 12 19 22 17 10 -2 17 4 17 14 0 11 6 15 20
11 13 -3 20 0 20 9 0 38 51 -1 120 -92 39 -52 64 -64 130 -64 16 0 30 -5 32
-11 5 -14 112 -26 303 -34 88 -3 178 -11 200 -17 38 -10 72 -14 175 -20 l45
-3 3 42 3 43 60 -31 c33 -16 91 -49 128 -73 65 -42 173 -78 188 -62 8 8 10
127 3 171 l-5 30 59 1 c54 1 60 3 78 33 l20 31 -46 0 c-59 0 -120 24 -226 89
-115 71 -164 83 -287 76 -108 -6 -159 4 -149 31 3 8 -1 17 -9 20 -8 4 -15 14
-15 25 0 10 -9 23 -20 29 -11 6 -19 16 -17 22 1 6 -9 14 -23 18 -14 3 -26 15
-28 25 -2 11 -11 25 -19 32 -10 8 -13 20 -9 37 4 15 1 26 -7 29 -9 3 -9 9 1
26 7 12 10 26 7 31 -17 28 36 40 78 19z m-4665 -40 c133 -66 176 -206 100
-319 -36 -52 -90 -75 -179 -75 -67 0 -81 4 -125 30 -130 81 -161 244 -63 337
70 67 168 77 267 27z m3621 -6 c64 -49 86 -122 56 -187 -48 -100 -192 -114
-258 -25 -30 41 -33 107 -9 156 39 76 145 104 211 56z m784 -73 c50 -56 66
-100 47 -135 -13 -24 -49 -45 -79 -45 -30 0 -73 57 -97 127 -13 38 -29 67 -35
65 -14 -3 -746 -379 -838 -430 l-65 -35 82 -41 81 -40 21 27 c12 15 35 29 56
33 58 11 109 -11 182 -80 37 -34 89 -77 115 -95 26 -18 86 -64 134 -102 49
-40 95 -69 108 -69 12 0 28 -7 35 -14 6 -8 27 -20 45 -26 39 -13 85 -62 85
-91 0 -13 7 -19 24 -19 14 0 28 -4 31 -10 3 -5 19 -10 35 -10 41 0 118 -31
174 -69 51 -35 167 -164 255 -281 30 -41 73 -96 94 -122 l39 -48 30 16 c28 15
40 14 167 -11 75 -15 186 -38 246 -51 61 -13 164 -33 230 -45 92 -16 124 -25
136 -41 l15 -20 103 22 c133 29 205 24 238 -14 31 -37 29 -53 -14 -108 -49
-59 -102 -78 -188 -67 -33 4 -82 8 -110 8 -46 1 -53 -2 -96 -45 l-46 -45 -134
30 c-74 16 -206 50 -293 76 -88 25 -167 45 -175 45 -20 0 58 -53 234 -157 84
-51 147 -95 157 -112 10 -16 46 -48 81 -71 74 -52 137 -113 137 -135 0 -22
-45 -108 -65 -125 -9 -8 -43 -68 -75 -135 -32 -66 -70 -131 -84 -145 l-27 -24
-32 32 -32 33 0 118 c0 95 -3 122 -16 137 -9 11 -19 31 -23 46 -4 20 -42 56
-129 125 -67 53 -164 131 -215 172 -109 89 -167 134 -221 176 -151 114 -273
217 -390 328 -75 71 -146 133 -158 138 -13 4 -23 17 -23 27 0 11 -9 31 -21 46
-16 21 -29 26 -63 26 -38 0 -44 3 -59 34 -14 30 -21 35 -64 39 -26 3 -66 10
-88 15 -22 6 -69 16 -104 22 -36 6 -81 19 -100 28 -35 17 -39 16 -121 -6 -48
-13 -129 -26 -186 -29 l-100 -6 -66 76 c-36 41 -97 119 -136 174 -39 55 -99
125 -133 157 -54 51 -64 57 -84 48 -13 -6 -26 -8 -29 -5 -10 10 -7 43 4 43 5
0 16 15 24 33 7 18 26 41 40 51 15 10 34 33 42 51 16 39 46 59 79 53 17 -4 26
1 34 19 6 12 19 23 30 23 10 0 24 7 31 15 20 24 53 18 75 -15 11 -16 24 -30
28 -30 10 0 707 347 722 360 17 14 338 172 365 180 35 10 69 -10 123 -70z
m1966 24 c12 -15 21 -34 21 -43 0 -25 14 -41 39 -46 39 -7 71 -34 88 -73 8
-20 19 -44 24 -52 5 -8 17 -31 27 -50 9 -19 23 -41 30 -48 6 -7 12 -20 12 -28
0 -22 21 -17 70 17 40 27 52 30 109 28 57 -2 65 0 72 19 10 27 59 52 103 52
39 0 86 -18 86 -33 0 -5 9 -20 20 -34 16 -20 20 -41 20 -98 0 -52 4 -76 15
-85 8 -7 15 -18 15 -25 0 -8 12 -23 26 -34 29 -23 15 -28 -28 -12 -34 13 -88
71 -88 95 0 32 -39 103 -66 121 -14 9 -35 15 -46 13 -19 -3 -16 -7 19 -30 63
-42 85 -85 87 -176 1 -42 5 -85 10 -94 11 -24 -65 -63 -93 -48 -30 16 -39 12
-34 -14 4 -20 -2 -28 -32 -43 -37 -19 -37 -19 -83 3 l-47 23 -25 -23 c-14 -12
-47 -35 -75 -51 -27 -15 -52 -29 -54 -31 -2 -2 1 -16 7 -32 10 -28 9 -30 -58
-66 -43 -23 -71 -33 -75 -26 -4 6 -27 21 -53 34 -26 13 -60 39 -77 56 -16 18
-40 36 -52 41 -42 16 -62 62 -89 205 -5 28 -77 40 -108 18 -29 -20 -42 -18
-71 13 -21 24 -25 37 -25 94 0 55 -4 69 -21 85 -22 19 -22 19 -15 -6 6 -22 5
-23 -4 -7 -7 10 -10 36 -8 57 3 33 1 37 -11 27 -11 -10 -11 -6 2 18 27 52 94
105 133 105 10 0 26 8 37 18 19 16 20 16 14 0 -5 -13 2 -22 23 -33 17 -9 30
-20 30 -24 0 -5 13 -12 29 -16 20 -4 51 -31 94 -80 36 -41 68 -71 71 -68 11
11 6 107 -8 161 -11 44 -11 56 0 78 18 34 18 33 -15 45 -15 5 -34 21 -41 34
-7 13 -18 23 -24 22 -13 -2 -9 42 6 61 18 22 65 14 87 -14z m-7115 -78 c64
-35 119 -77 195 -148 109 -103 143 -124 267 -163 63 -20 73 -21 98 -8 24 12
30 12 49 0 13 -8 36 -12 53 -10 21 3 48 -4 85 -22 l53 -27 166 6 c155 7 167 6
202 -13 49 -27 56 -26 64 4 5 21 12 25 40 25 36 0 45 13 19 28 -14 7 -14 11 0
39 9 17 22 34 30 37 8 3 15 11 15 18 0 19 176 17 210 -1 31 -17 113 -99 129
-129 8 -15 21 -22 40 -22 16 0 55 -13 86 -30 31 -16 65 -30 75 -30 11 0 22 -4
25 -10 3 -5 17 -10 30 -10 22 0 24 3 18 33 -3 17 -19 46 -34 62 -16 17 -29 36
-29 42 0 6 -16 28 -35 49 -23 24 -35 46 -35 66 0 22 -15 43 -65 92 -36 35 -65
68 -65 74 0 7 11 19 25 28 38 25 75 11 109 -41 37 -59 60 -71 92 -50 31 20 31
55 -1 85 -28 26 -33 68 -9 77 22 8 52 -11 124 -76 52 -47 64 -65 78 -111 26
-92 27 -168 4 -200 l-20 -27 62 -45 c72 -52 104 -106 108 -183 3 -44 0 -50
-23 -62 -48 -24 -62 -48 -55 -97 6 -37 12 -46 37 -56 43 -18 92 -80 138 -174
32 -64 54 -93 106 -140 55 -48 66 -63 63 -86 -3 -32 31 -112 46 -107 6 2 13
14 16 28 4 18 13 25 38 27 30 3 42 -6 118 -80 116 -113 137 -155 94 -198 -26
-26 -83 -27 -109 -1 -10 10 -31 40 -46 65 -15 25 -30 44 -35 41 -4 -3 -11 -20
-14 -39 -4 -19 -16 -46 -27 -60 -18 -23 -28 -26 -82 -26 -68 0 -132 24 -207
79 -24 17 -55 31 -70 31 -22 0 -37 15 -94 99 -57 84 -73 100 -107 111 -37 13
-41 12 -55 -8 -8 -12 -20 -22 -26 -22 -6 0 -39 -11 -73 -24 -64 -26 -116 -24
-151 5 -48 40 -84 192 -63 267 12 43 12 43 -27 83 -21 22 -61 53 -89 68 -48
27 -155 125 -155 142 0 4 -9 10 -19 14 -10 3 -21 14 -24 24 -2 11 -28 26 -64
40 -42 16 -64 30 -72 48 -10 22 -15 24 -44 16 -86 -22 -174 0 -299 74 -42 25
-50 26 -80 15 -39 -14 -229 -8 -270 9 -15 6 -30 20 -33 30 -14 44 -178 88
-375 99 -213 12 -290 37 -387 124 -59 53 -93 118 -93 178 0 34 6 49 33 76 l32
34 100 -4 c98 -3 102 -4 189 -52z m9589 -232 c17 -20 15 -23 -138 -143 -85
-67 -155 -126 -155 -131 0 -5 5 -12 10 -15 6 -3 10 -16 10 -28 -1 -17 -62 -70
-249 -217 -137 -107 -256 -196 -264 -198 -18 -4 -117 112 -117 136 1 18 486
404 516 410 8 2 24 -4 34 -13 23 -21 12 -27 189 112 79 63 144 112 145 111 1
-2 9 -12 19 -24z m-3870 -23 c4 -4 7 -37 5 -72 l-3 -64 -120 -3 c-66 -1 -185
1 -265 5 -134 7 -145 10 -149 28 -2 11 -8 23 -15 27 -6 4 -75 8 -153 8 l-143
0 0 26 0 26 155 -7 c149 -7 155 -6 155 12 0 11 3 23 8 28 9 10 514 -4 525 -14z
m2017 -546 c27 -24 40 -84 33 -153 -5 -53 -10 -66 -31 -80 -24 -16 -25 -17
-20 -127 5 -101 8 -119 42 -193 42 -92 49 -159 22 -210 -9 -17 -16 -36 -16
-42 0 -21 52 3 85 39 l33 35 63 -12 c109 -22 299 -72 414 -108 61 -19 117 -37
126 -39 12 -4 19 2 23 19 8 33 51 82 76 89 12 3 26 0 33 -8 9 -10 14 -6 22 18
17 50 35 54 100 22 69 -35 95 -66 95 -112 0 -28 -10 -45 -54 -91 -29 -31 -65
-80 -80 -109 -14 -29 -35 -57 -45 -63 -49 -26 -127 4 -159 60 -9 16 -24 30
-33 30 -9 0 -19 7 -22 14 -9 24 -72 35 -239 42 l-158 7 0 -31 c0 -28 -4 -32
-40 -42 -45 -12 -52 -24 -69 -112 -8 -46 -7 -65 10 -119 24 -77 20 -130 -18
-205 -24 -49 -24 -53 -9 -82 33 -64 12 -90 -94 -113 -48 -10 -55 -16 -143
-122 -128 -155 -177 -218 -177 -230 0 -19 -51 -77 -80 -92 -16 -8 -51 -15 -79
-15 -46 0 -51 -3 -79 -41 -30 -40 -30 -41 -11 -60 19 -19 19 -20 -4 -57 -16
-25 -33 -38 -50 -40 -17 -2 -34 -15 -48 -38 -12 -20 -33 -40 -46 -45 -33 -12
-126 -12 -118 1 4 6 -10 10 -35 10 -33 0 -43 4 -47 20 -3 11 -11 20 -18 20
-18 0 -28 51 -16 83 10 24 8 27 -17 33 -103 23 -151 38 -193 60 -74 41 -93 66
-99 132 l-5 57 -40 -3 c-33 -3 -47 2 -80 31 -22 19 -52 37 -67 41 -16 3 -28
13 -28 21 0 8 -4 15 -10 15 -5 0 -10 6 -10 13 0 6 -9 23 -19 36 -10 14 -17 31
-14 38 3 7 0 19 -6 27 -15 18 -3 46 20 46 11 0 39 -10 62 -22 48 -24 110 -25
164 -3 19 8 83 62 144 121 86 82 125 113 177 136 l67 30 80 -86 c44 -47 88
-86 98 -86 9 0 26 -5 36 -11 15 -10 26 -7 62 18 24 16 74 46 110 66 36 21 97
63 135 95 60 51 69 63 76 102 13 79 17 88 53 109 19 11 35 26 35 32 0 6 -27
77 -61 158 -73 176 -80 206 -50 227 14 10 21 26 21 49 0 19 5 37 10 40 6 3 7
23 4 43 -3 20 1 85 10 143 9 59 16 148 16 199 0 80 -2 91 -16 86 -22 -9 -62 3
-68 21 -3 8 1 27 9 43 8 16 15 31 15 33 0 2 -23 7 -51 10 -67 8 -114 36 -114
67 0 30 63 75 126 90 24 5 78 19 119 30 82 21 133 19 160 -5z m720 -450 c39
-20 60 -53 60 -93 0 -44 -14 -68 -52 -88 -48 -25 -113 -14 -151 25 -91 90 25
217 143 156z m-1020 -57 c0 -4 -21 -62 -47 -130 -41 -108 -47 -133 -47 -203
-1 -72 2 -87 34 -150 32 -64 35 -78 34 -155 0 -100 -21 -155 -84 -224 -107
-116 -285 -115 -363 4 -34 51 -47 95 -47 160 0 127 60 228 175 292 145 82 169
113 240 308 l47 128 29 -11 c16 -6 29 -15 29 -19z m3891 -29 c48 -16 88 -57
95 -97 9 -48 -11 -108 -46 -134 -17 -12 -30 -27 -30 -33 0 -6 -13 -24 -29 -39
-22 -21 -41 -29 -75 -31 -31 -2 -55 -11 -76 -29 -17 -14 -47 -30 -68 -35 -26
-8 -58 -33 -112 -90 -63 -67 -83 -82 -122 -91 -40 -10 -50 -19 -77 -61 -36
-59 -77 -85 -153 -100 l-58 -12 0 -67 c0 -52 6 -81 27 -126 20 -44 27 -76 28
-124 1 -55 5 -72 28 -101 14 -19 38 -60 52 -90 34 -72 73 -125 91 -121 8 2 18
-8 24 -22 5 -14 27 -34 50 -46 113 -58 346 -343 326 -397 -11 -27 14 -43 65
-43 42 0 50 -4 70 -31 12 -17 43 -52 69 -78 27 -27 58 -68 70 -92 13 -24 66
-100 119 -168 53 -69 112 -148 131 -176 54 -79 94 -125 108 -125 6 0 12 -4 12
-10 0 -6 27 -10 60 -10 32 0 83 -6 112 -14 32 -8 81 -12 123 -9 59 4 75 1 103
-17 24 -15 32 -27 30 -42 -4 -32 -95 -91 -192 -126 -45 -17 -112 -44 -148 -61
-36 -17 -76 -31 -89 -31 -37 0 -95 54 -124 115 -18 39 -31 55 -45 55 -14 0
-20 7 -20 24 0 16 -33 58 -102 134 -115 123 -152 157 -192 172 -48 18 -51 15
-49 -52 1 -35 3 -91 4 -126 1 -34 6 -65 10 -68 5 -3 9 -19 9 -36 0 -17 5 -59
11 -93 l11 -62 66 -13 c37 -6 93 -14 126 -16 120 -9 156 -48 97 -102 -40 -38
-113 -63 -208 -72 -68 -5 -92 -12 -133 -38 -62 -39 -73 -35 -121 40 -34 52
-34 54 -35 178 -1 93 -6 135 -18 164 -10 21 -15 44 -12 52 9 23 -27 98 -70
147 -45 50 -74 119 -74 174 0 18 9 56 20 85 l20 52 -26 33 c-14 18 -33 33 -44
33 -10 0 -25 2 -33 6 -9 3 -19 -6 -27 -25 -22 -54 -34 -57 -94 -21 -30 18 -87
63 -128 100 -40 36 -97 80 -127 95 -55 30 -128 105 -155 159 -32 64 -60 132
-61 146 -1 19 -51 111 -90 163 -24 33 -39 43 -80 52 -63 14 -111 40 -125 65
-8 15 -21 20 -51 20 -123 0 -194 127 -139 249 14 30 20 65 20 114 0 58 6 83
31 138 29 62 30 71 19 99 -7 18 -20 30 -31 30 -22 0 -69 21 -69 31 0 4 -10 9
-22 12 -13 4 -30 21 -39 39 -40 82 -40 83 -30 128 5 24 8 47 6 50 -7 11 90
109 120 120 76 30 133 40 167 28 18 -6 37 -15 43 -19 5 -5 20 -9 32 -9 37 0
73 -46 73 -93 0 -27 8 -50 24 -72 14 -18 28 -44 31 -57 l7 -25 61 14 c34 9 71
20 82 26 11 6 34 18 50 26 18 10 55 16 93 16 49 0 66 4 77 18 7 9 33 24 59 33
37 13 52 25 72 60 28 47 86 84 152 99 25 5 37 15 47 39 17 40 88 106 115 106
12 0 35 19 57 49 67 87 155 119 244 90z m-1933 -25 c13 -4 21 -13 20 -22 -2
-10 11 -23 35 -35 33 -15 38 -22 33 -42 -3 -13 -2 -26 3 -29 5 -3 12 -21 15
-40 5 -28 12 -36 36 -41 37 -8 39 -31 4 -39 -20 -5 -25 -12 -22 -34 2 -21 9
-27 28 -29 14 0 31 -1 38 -2 22 -2 13 -31 -14 -43 -19 -9 -24 -17 -19 -32 16
-49 17 -67 5 -81 -16 -19 -30 -10 -30 18 0 16 -3 18 -12 9 -18 -18 -38 -14
-38 8 0 15 -7 20 -25 20 -22 0 -24 -3 -16 -17 20 -35 47 -61 78 -77 42 -21
128 -101 154 -143 11 -18 28 -33 36 -33 12 0 14 -7 10 -28 -5 -23 0 -33 29
-56 19 -15 48 -54 65 -88 l30 -60 -21 -15 c-16 -11 -20 -22 -15 -40 4 -18 -9
-51 -50 -127 -39 -73 -55 -114 -55 -141 0 -21 -6 -46 -14 -54 -10 -12 -12 -31
-6 -79 7 -58 5 -70 -20 -125 -16 -34 -34 -90 -40 -125 -11 -61 -10 -65 19
-126 43 -87 43 -147 2 -249 -36 -90 -39 -134 -12 -168 10 -13 26 -44 34 -69 9
-25 25 -64 36 -87 12 -23 21 -46 21 -51 0 -17 -39 -44 -55 -38 -9 3 -25 1 -35
-4 -12 -7 -21 -7 -25 0 -4 6 -13 5 -26 -3 -16 -10 -21 -9 -28 1 -4 7 -14 10
-23 7 -9 -4 -22 4 -33 21 -14 22 -16 37 -10 83 14 104 5 359 -16 436 -14 53
-16 80 -9 109 5 24 5 48 -2 65 -5 14 -7 43 -4 64 4 22 3 37 -1 35 -5 -2 -20
-10 -35 -17 -24 -12 -34 -12 -75 4 -26 10 -63 33 -81 51 -18 18 -42 36 -53 39
-27 9 -46 41 -59 98 -15 70 -13 204 4 261 26 84 2 240 -51 335 l-36 64 -25
-67 c-23 -63 -26 -66 -56 -66 -42 0 -48 -7 -30 -35 12 -18 44 -169 44 -207 0
-5 8 -8 18 -8 9 -1 33 -14 52 -31 29 -24 33 -32 24 -47 -6 -9 -9 -32 -6 -50 4
-27 1 -32 -16 -32 -12 0 -24 5 -27 10 -3 6 -20 10 -37 10 -22 0 -39 10 -64 37
-31 33 -34 42 -29 78 5 34 1 49 -30 100 -20 33 -50 74 -66 91 l-31 32 26 50
c22 44 23 52 11 68 -8 11 -15 25 -15 33 0 24 93 162 106 157 7 -3 22 10 34 29
11 18 37 47 56 64 37 33 124 81 147 81 7 0 25 13 40 28 24 25 26 30 13 47 -11
16 -17 17 -29 7 -8 -7 -18 -24 -21 -38 -9 -33 -30 -26 -36 12 l-5 29 -18 -25
c-9 -13 -17 -32 -17 -41 0 -12 -10 -16 -45 -16 -39 0 -45 3 -45 21 0 12 9 38
20 59 33 60 23 109 -25 121 -38 10 -32 36 8 36 21 0 41 8 52 20 18 20 17 20
-8 20 -15 0 -27 4 -27 8 0 13 41 48 80 68 26 13 31 19 18 22 -49 10 3 34 56
25 27 -4 34 -1 44 21 12 27 36 34 47 16 5 -8 11 -7 20 0 28 23 84 34 123 24z
m-5700 -154 c66 -30 109 -67 116 -100 4 -22 52 -77 163 -190 87 -88 167 -176
179 -195 11 -19 23 -37 26 -40 3 -3 31 10 63 30 33 19 64 35 69 35 6 0 29 18
50 40 41 42 128 77 165 65 10 -3 23 1 31 10 18 21 101 19 244 -6 103 -18 127
-20 173 -9 46 10 53 14 48 31 -5 16 -1 19 29 19 34 0 36 2 36 34 0 53 20 62
78 32 49 -25 102 -76 102 -99 0 -24 21 -87 33 -99 27 -28 57 -77 57 -95 1 -20
9 -32 64 -93 l38 -42 40 16 c28 10 46 12 58 6 25 -13 98 -97 124 -142 12 -22
31 -40 46 -43 86 -22 243 -162 256 -229 13 -70 -22 -73 -139 -15 -64 32 -101
61 -167 127 -88 89 -109 98 -140 63 -12 -13 -29 -16 -87 -13 l-73 4 -12 39
c-6 22 -23 49 -37 61 l-26 20 -6 -37 c-4 -21 -14 -42 -23 -47 -13 -7 -14 -13
-4 -31 7 -14 11 -61 10 -123 -2 -103 12 -158 44 -171 16 -6 19 -80 4 -103 -9
-13 -11 -13 -20 0 -5 8 -7 23 -4 33 5 16 3 17 -15 5 -13 -8 -21 -23 -21 -40 0
-16 -5 -28 -10 -28 -17 0 -29 39 -44 140 -8 53 -26 123 -40 157 -15 36 -26 81
-26 107 0 38 -3 45 -25 50 -17 4 -27 16 -33 38 -8 31 -15 35 -113 70 -57 20
-127 40 -156 43 -47 7 -57 4 -103 -24 -28 -17 -52 -31 -55 -31 -2 0 -12 14
-21 31 l-16 32 -66 -6 -67 -7 -77 -78 -78 -79 -27 17 c-23 14 -31 14 -53 3
-15 -7 -57 -21 -94 -30 -63 -17 -68 -17 -80 -1 -7 9 -84 101 -172 204 -302
356 -270 323 -310 319 -23 -1 -46 -13 -68 -34 -24 -23 -41 -31 -69 -31 -47 0
-52 12 -37 84 13 63 48 112 95 132 23 9 35 24 48 61 9 26 17 57 17 68 1 31 37
105 52 105 7 0 32 -9 56 -20z m-863 -161 c66 -18 164 -83 263 -173 59 -54 104
-87 125 -92 43 -9 236 -101 348 -164 74 -43 96 -62 128 -109 21 -31 46 -63 56
-71 9 -7 25 -30 35 -50 14 -28 30 -40 77 -59 134 -54 290 -170 344 -257 11
-19 26 -34 34 -34 7 0 27 -22 46 -48 l33 -48 131 -22 c100 -18 149 -21 211
-16 69 6 85 4 120 -14 38 -19 108 -87 149 -145 20 -27 21 -27 51 -12 39 19
122 35 185 35 35 0 51 5 61 18 7 10 25 26 40 36 24 16 29 16 57 1 43 -22 64
-68 64 -140 0 -82 -18 -155 -48 -184 -19 -20 -37 -26 -87 -29 -35 -2 -67 -8
-72 -13 -22 -20 -77 -9 -104 20 -16 17 -42 32 -64 36 -35 7 -38 5 -64 -37 -33
-51 -64 -129 -64 -160 0 -12 -9 -41 -21 -64 -18 -38 -25 -43 -57 -46 -36 -3
-39 -6 -77 -84 -47 -97 -62 -114 -137 -165 -31 -21 -59 -43 -62 -48 -4 -5 16
-26 44 -46 27 -20 50 -43 50 -51 0 -22 -57 -17 -97 8 l-35 21 7 -50 c5 -42 4
-51 -11 -57 -29 -11 -54 4 -61 36 l-6 30 -13 -31 c-18 -43 -38 -48 -75 -17
-17 14 -37 26 -44 26 -8 0 -20 8 -27 18 -7 11 -23 24 -35 31 -27 14 -31 58 -7
63 12 2 17 14 19 38 1 19 5 49 9 65 4 19 -3 11 -19 -23 -19 -37 -32 -52 -44
-50 -11 3 -15 13 -14 31 1 20 -3 27 -17 27 -38 0 -29 21 40 95 86 93 97 114
110 207 15 102 29 149 52 175 17 18 18 23 7 27 -56 18 -136 49 -203 80 -43 20
-91 36 -106 36 -22 0 -29 6 -34 26 -6 23 -11 26 -38 20 -21 -4 -45 0 -72 13
-23 11 -69 21 -103 23 -111 7 -267 101 -304 182 -21 46 -24 107 -8 138 9 17 5
25 -30 55 -50 42 -56 89 -16 128 29 30 38 30 90 6 44 -20 83 -54 110 -94 11
-17 26 -27 41 -27 21 0 16 11 -58 111 -89 120 -191 211 -343 307 -158 100
-155 97 -156 144 -2 70 -11 92 -44 99 -36 8 -93 36 -120 59 -11 9 -51 25 -90
35 -157 41 -215 82 -215 152 0 77 57 102 165 72z m5499 -251 c13 -18 28 -45
31 -60 4 -16 12 -28 18 -28 33 0 65 -78 38 -94 -5 -3 -1 -26 8 -51 15 -41 24
-49 80 -75 35 -17 73 -30 84 -30 34 -1 103 -35 121 -61 9 -13 19 -41 23 -61 3
-24 11 -38 20 -38 48 0 112 -75 153 -180 26 -66 18 -85 -47 -115 -31 -14 -61
-25 -68 -25 -10 0 -10 -8 1 -37 7 -21 13 -45 14 -54 0 -8 11 -26 24 -38 19
-18 32 -52 52 -135 23 -97 26 -125 21 -221 -5 -122 -10 -142 -38 -150 -19 -6
-61 -70 -73 -110 -5 -17 3 -24 44 -43 58 -27 109 -94 158 -208 16 -39 43 -90
58 -113 16 -24 41 -64 56 -89 14 -25 46 -64 71 -87 66 -60 69 -86 19 -138 -22
-23 -49 -61 -61 -84 -25 -50 -43 -57 -156 -57 l-80 -1 -3 28 c-2 18 2 29 12
33 9 3 16 12 16 20 0 7 6 17 13 21 6 4 29 41 50 82 l39 74 -21 26 c-12 14 -28
40 -36 57 -8 17 -105 120 -217 229 l-203 197 -5 92 -5 91 -20 -33 c-15 -26
-25 -32 -43 -29 -15 3 -44 -9 -87 -37 -35 -22 -84 -53 -109 -68 l-46 -27 43
-43 c49 -49 63 -90 83 -228 7 -52 18 -96 24 -98 5 -2 10 -14 10 -27 0 -44 13
-85 26 -85 8 0 14 -7 14 -15 0 -9 9 -28 21 -44 22 -30 40 -93 30 -108 -3 -5
-49 -29 -100 -53 -75 -34 -109 -44 -166 -48 -58 -4 -73 -1 -85 13 -12 15 -12
22 5 53 11 20 29 41 40 47 25 12 95 88 95 103 0 6 -9 32 -21 59 -11 26 -22 60
-23 74 -2 32 -141 271 -179 310 -15 15 -34 44 -42 63 -13 30 -13 40 -1 73 32
86 105 230 130 253 15 14 34 39 42 57 15 29 77 93 167 171 23 19 37 39 33 47
-3 9 3 15 17 17 20 3 22 9 22 60 0 53 -4 63 -47 122 -43 58 -109 109 -116 88
-5 -15 -83 -117 -100 -129 -29 -23 -57 -14 -113 36 l-54 48 0 69 c0 38 1 92 3
119 1 28 -1 66 -4 86 -4 24 0 47 10 67 18 34 85 78 133 88 17 3 40 18 51 34
20 27 20 27 1 59 -10 17 -30 36 -44 41 -19 7 -25 17 -25 39 0 17 -5 41 -12 55
-9 21 -8 33 6 64 10 21 16 44 14 52 -5 20 97 70 143 70 31 0 42 -6 63 -32z
m-1588 -33 c76 -44 103 -137 65 -221 -26 -57 -72 -87 -141 -92 -91 -7 -158 41
-179 125 -38 148 122 266 255 188z m-1900 -440 c71 -21 158 -84 162 -117 6
-53 -152 -157 -273 -179 -104 -19 -203 6 -286 71 -48 39 -49 70 -5 118 43 47
80 72 145 98 67 28 181 32 257 9z m865 -228 c39 -26 69 -79 69 -122 0 -43 -30
-96 -69 -122 -71 -48 -175 -20 -213 57 -50 98 21 210 132 210 32 0 58 -7 81
-23z m456 -32 c68 -32 107 -83 109 -142 1 -25 7 -50 13 -56 6 -6 11 -17 11
-24 0 -23 81 -123 100 -123 11 0 20 -10 23 -27 3 -16 17 -57 32 -92 34 -81 61
-212 70 -339 l7 -98 -96 -73 c-53 -40 -96 -76 -96 -80 0 -4 10 -13 21 -21 53
-36 74 -61 103 -119 l31 -63 85 -29 c46 -16 85 -29 87 -29 2 0 3 15 3 34 0 39
49 118 93 150 23 17 43 21 100 21 111 -1 154 -33 171 -128 4 -20 21 -53 37
-72 l31 -35 -40 -6 c-34 -5 -41 -10 -44 -34 -10 -70 28 -89 91 -46 53 36 83
41 112 18 l24 -20 -28 5 c-24 5 -38 -4 -101 -66 -71 -68 -76 -71 -122 -71 -83
0 -144 57 -144 133 0 27 -35 77 -54 77 -7 0 -21 -6 -31 -14 -18 -13 -18 -16
17 -67 102 -150 107 -338 14 -559 -27 -64 -36 -98 -36 -143 0 -69 -19 -111
-90 -197 -74 -88 -94 -148 -76 -225 5 -25 1 -37 -24 -65 -16 -18 -30 -39 -30
-46 0 -6 -7 -17 -15 -24 -20 -16 -19 -53 1 -92 20 -39 14 -110 -13 -147 -41
-55 -143 -50 -151 8 -7 49 9 112 37 144 38 43 48 90 26 123 -12 18 -15 36 -10
62 5 30 1 44 -20 71 -16 23 -25 48 -25 74 0 35 -78 238 -99 260 -5 5 -23 7
-41 5 l-32 -3 23 -29 23 -29 -18 -71 c-27 -108 -35 -125 -76 -146 -21 -11 -49
-32 -62 -48 -23 -27 -24 -34 -14 -75 8 -38 16 -47 50 -63 28 -13 44 -29 53
-52 13 -32 12 -35 -21 -68 -30 -30 -40 -34 -84 -34 -63 0 -97 26 -115 90 -12
39 -17 45 -39 43 -22 -1 -27 4 -32 33 -7 36 8 109 24 119 21 13 8 67 -37 161
l-48 99 -1 118 c-2 105 -4 122 -24 149 -24 33 -54 115 -64 174 -4 24 1 67 12
114 l18 75 -48 46 c-71 70 -72 89 -8 154 l53 53 -51 109 c-28 59 -60 132 -72
162 l-21 54 31 65 c39 83 111 184 155 218 42 31 43 41 10 54 -35 13 -50 56
-30 86 9 14 21 21 30 18 8 -4 15 -4 15 -1 0 7 -40 101 -46 106 -7 7 -74 -61
-74 -75 0 -7 -22 -20 -48 -29 -74 -27 -125 -66 -132 -100 -4 -17 -13 -41 -20
-55 -23 -43 -29 -88 -14 -101 21 -18 18 -25 -31 -60 -30 -22 -45 -40 -45 -55
0 -28 -43 -81 -73 -90 -12 -3 -34 -18 -49 -32 -27 -25 -28 -25 -48 -7 -19 17
-21 16 -84 -24 -36 -24 -66 -46 -68 -50 -2 -4 -39 -34 -83 -66 -170 -125 -185
-138 -185 -157 0 -10 -7 -21 -16 -25 -20 -7 -57 28 -49 48 4 8 41 38 83 68 42
30 139 100 215 155 134 98 137 102 132 133 -3 17 -1 34 5 38 5 3 10 17 10 30
0 13 15 38 36 59 34 34 36 38 20 55 -15 17 -14 24 15 114 32 101 67 150 121
174 15 7 70 48 122 92 53 45 100 81 104 81 4 0 28 20 52 45 25 26 50 43 58 40
8 -3 34 13 59 34 24 22 66 47 93 56 45 15 49 19 55 58 13 76 47 120 121 157
49 24 41 24 101 -5z m1658 -165 c66 -36 117 -102 109 -138 -12 -47 -52 -119
-101 -179 -76 -95 -166 -193 -176 -193 -5 0 -27 -20 -49 -45 -22 -25 -43 -45
-47 -45 -11 0 -171 140 -171 150 0 4 22 32 50 61 l49 53 -1 80 c-2 143 33 216
105 216 33 0 48 7 83 40 50 46 65 46 149 0z m2354 -21 c59 -21 52 -70 -21
-145 -21 -22 -38 -45 -37 -50 4 -23 -4 -36 -40 -62 l-40 -29 82 -124 c45 -68
110 -168 144 -221 l61 -96 102 -4 c85 -2 104 -6 115 -21 24 -33 4 -60 -73 -98
-40 -20 -74 -38 -77 -40 -2 -3 -12 -44 -23 -91 -18 -87 -18 -87 2 -107 19 -20
19 -22 4 -55 -16 -32 -16 -36 3 -72 24 -49 24 -121 0 -200 -12 -38 -18 -76
-14 -101 5 -39 4 -40 -91 -129 -77 -73 -96 -96 -96 -119 0 -25 -3 -27 -29 -22
-27 6 -31 1 -92 -101 -73 -122 -186 -249 -251 -279 -24 -11 -74 -35 -111 -53
l-68 -32 22 -24 c12 -13 20 -27 17 -30 -4 -3 42 -47 100 -98 148 -128 163
-166 99 -253 -30 -41 -36 -59 -39 -108 -3 -57 -4 -60 -35 -69 -22 -6 -33 -15
-33 -27 0 -23 -31 -41 -51 -28 -22 14 -27 11 -31 -18 -2 -23 -8 -29 -35 -31
-26 -3 -33 1 -33 14 0 13 -5 11 -25 -10 -13 -14 -27 -26 -30 -26 -19 0 -44 23
-49 45 -6 22 -12 25 -49 25 -101 0 -268 57 -356 120 -41 30 -41 31 -26 60 22
42 118 107 193 130 81 25 158 25 257 0 43 -11 79 -20 81 -20 1 0 -3 18 -8 40
-12 44 -48 80 -83 80 -52 0 -364 267 -333 286 5 4 1 14 -10 24 -10 10 -36 38
-56 63 -36 44 -37 45 -75 35 -33 -8 -45 -6 -91 17 -28 14 -59 24 -67 20 -9 -3
-44 12 -82 36 -36 23 -77 49 -90 57 -22 13 -23 19 -19 81 4 54 13 82 43 137
21 38 40 71 42 73 2 3 13 -5 26 -17 30 -28 107 -52 182 -57 33 -3 68 -6 78 -7
11 -2 36 19 70 62 29 35 68 75 87 88 19 13 38 31 41 40 11 29 122 55 206 48
63 -5 72 -4 77 12 4 10 26 33 51 50 29 21 45 39 45 53 0 43 74 163 143 233 37
38 77 87 88 108 22 43 71 78 109 78 18 0 38 15 68 49 23 28 42 52 42 55 0 3
-16 27 -36 53 -20 26 -41 59 -46 73 -15 39 -54 196 -73 290 l-17 86 -44 18
c-24 10 -57 34 -74 53 -26 29 -31 42 -28 76 3 35 8 45 37 62 19 11 55 40 80
64 85 81 198 112 290 80z m-2101 -63 c15 -7 40 -20 56 -27 47 -22 79 -73 84
-133 l4 -53 -57 -49 c-31 -27 -73 -76 -92 -109 -53 -89 -100 -143 -141 -164
-38 -20 -96 -74 -92 -86 2 -4 -14 -29 -35 -57 l-38 -49 38 -72 c23 -45 40 -95
46 -134 6 -43 19 -79 43 -116 19 -30 50 -85 68 -123 18 -38 43 -77 56 -88 14
-11 21 -25 17 -33 -3 -9 16 -49 44 -93 41 -64 82 -154 108 -241 5 -19 60 -45
113 -54 37 -7 144 -62 238 -123 32 -20 77 -46 100 -56 32 -15 45 -27 49 -47 3
-19 13 -29 31 -34 35 -9 167 -137 213 -208 45 -69 55 -108 39 -148 -11 -26
-17 -29 -61 -29 -60 0 -109 31 -225 142 -62 59 -88 78 -110 79 -30 0 -60 18
-271 161 -70 48 -152 95 -180 106 -64 24 -161 100 -249 195 l-67 72 27 -48
c21 -37 25 -52 16 -60 -8 -9 -18 -4 -41 21 -16 17 -31 32 -35 32 -3 0 3 -15
14 -32 43 -72 35 -103 -15 -56 -20 19 -23 19 -23 4 0 -23 -22 -15 -35 12 -5
12 -16 21 -24 19 -17 -2 -41 38 -41 69 0 37 -11 34 -75 -21 -35 -29 -96 -75
-137 -103 -62 -42 -76 -57 -86 -90 -7 -21 -12 -45 -12 -51 0 -7 -25 -54 -55
-104 -56 -95 -125 -252 -125 -286 0 -15 -10 -21 -41 -26 l-40 -7 2 -46 c4 -89
-3 -95 -116 -108 -33 -3 -96 -15 -140 -26 -80 -21 -177 -20 -197 0 -5 5 -8 27
-6 48 3 34 9 43 50 69 26 17 47 35 47 42 1 7 16 15 34 18 22 4 39 17 55 41 15
22 30 34 45 34 30 0 40 10 27 25 -7 8 -3 23 13 46 46 68 71 118 156 304 93
204 177 340 286 465 42 49 63 80 59 90 -4 8 -11 29 -17 45 -6 17 -28 54 -49
83 -31 42 -44 52 -67 52 -24 0 -31 6 -44 39 -9 21 -23 41 -31 44 -9 4 -16 14
-16 23 0 9 -9 31 -20 48 -32 54 -35 104 -7 158 26 51 25 58 -5 58 -19 0 -81
58 -92 85 -3 8 -15 15 -26 15 -29 0 -34 22 -15 59 14 28 14 34 0 53 -43 63 12
149 123 193 50 20 102 15 161 -16 48 -25 59 -37 71 -80 8 -25 6 -46 -6 -83
-16 -48 -16 -49 7 -71 38 -37 81 -41 117 -10 16 14 38 25 49 25 10 0 35 9 55
19 19 11 38 18 41 15 3 -3 16 6 30 20 18 18 37 26 62 26 47 0 77 21 115 80 34
53 72 85 140 120 81 41 101 59 90 80 -6 11 -28 25 -50 31 -65 20 -61 53 7 51
18 -1 33 2 33 6 0 4 -12 30 -27 60 -26 51 -26 53 -7 67 24 18 30 18 62 1z
m1000 -98 c16 -46 51 -145 78 -221 l48 -138 36 6 c25 4 40 2 47 -7 19 -24 263
-727 257 -742 -3 -8 -49 -29 -101 -47 -80 -26 -97 -29 -108 -18 -19 21 -265
727 -259 743 3 8 19 19 34 25 l29 10 -18 53 c-153 432 -143 398 -118 408 40
16 45 11 75 -72z m-2245 -322 c73 -30 120 -124 98 -196 -45 -150 -244 -172
-311 -34 -26 53 -25 99 3 154 38 75 132 109 210 76z m4015 -322 c76 -31 122
-95 122 -169 0 -218 -360 -235 -408 -20 -17 80 14 145 88 183 53 27 142 30
198 6z m-5552 -355 c42 -22 49 -30 49 -55 0 -16 10 -42 22 -57 12 -16 27 -53
33 -84 7 -30 21 -64 32 -75 18 -18 18 -21 4 -37 -27 -30 -18 -46 37 -69 99
-42 222 -186 259 -305 22 -69 20 -104 -14 -229 l-20 -77 21 -27 c32 -41 36
-85 12 -139 -12 -26 -21 -51 -21 -56 0 -4 16 -35 36 -69 l37 -61 -33 -40 c-24
-30 -37 -62 -51 -122 -32 -148 -66 -225 -187 -430 -36 -61 -51 -77 -64 -73
-10 3 -26 8 -36 12 -11 3 -38 -11 -77 -41 -32 -26 -87 -62 -121 -81 -62 -35
-232 -105 -287 -118 -27 -6 -28 -9 -22 -50 6 -35 2 -55 -20 -102 -22 -48 -57
-88 -180 -209 -135 -132 -153 -153 -148 -176 4 -20 -2 -31 -24 -48 -27 -22
-28 -26 -28 -114 0 -119 -20 -157 -96 -181 -46 -16 -53 -16 -68 -2 -10 9 -27
16 -39 16 -12 0 -27 7 -34 15 -7 9 -21 24 -32 35 -15 16 -17 27 -11 67 10 66
38 118 96 173 27 26 49 54 49 63 0 28 12 47 29 47 12 0 25 19 42 58 21 49 25
78 29 212 5 131 9 163 28 204 12 27 22 65 22 85 1 20 8 54 16 76 8 22 18 47
20 56 5 13 -21 20 -163 43 -221 36 -233 39 -278 83 -42 43 -65 88 -65 131 0
105 173 328 340 438 23 15 48 40 56 56 14 27 13 31 -25 86 -80 118 -176 214
-249 251 -24 12 -51 30 -60 39 -10 9 -37 30 -60 46 -102 70 -186 202 -213 333
-17 84 -5 130 41 161 33 23 42 24 160 20 79 -3 134 -9 150 -18 53 -29 175 3
272 70 72 51 171 98 223 105 24 4 65 1 100 -8 94 -24 105 -20 140 44 17 31 37
64 45 74 8 10 14 26 12 36 -6 34 50 49 174 46 75 -2 100 -7 140 -28z m5407
-13 c16 -13 16 -17 -11 -77 -16 -35 -41 -97 -57 -138 l-28 -73 32 -27 c17 -15
31 -30 31 -35 0 -5 -14 -24 -31 -43 -16 -19 -29 -37 -26 -39 2 -2 33 -1 70 3
53 5 67 9 67 22 0 10 -4 21 -9 27 -5 5 -11 29 -14 52 -5 43 -5 44 20 37 21 -5
24 -3 19 13 -13 40 30 109 87 138 15 8 50 16 77 17 28 1 50 5 50 10 0 22 38 0
93 -53 l62 -59 0 -68 c0 -59 3 -69 20 -76 19 -8 19 -9 3 -21 -10 -7 -18 -19
-18 -25 0 -7 -12 -24 -27 -38 -27 -24 -27 -26 -9 -37 10 -6 41 -26 68 -43 28
-18 58 -33 68 -33 11 0 21 -4 24 -9 3 -4 27 -11 53 -15 27 -3 62 -15 78 -26
17 -11 44 -20 61 -20 17 0 53 -3 79 -7 40 -5 51 -11 67 -39 11 -18 30 -35 46
-39 40 -10 131 -64 142 -85 5 -10 26 -28 45 -40 58 -36 62 -53 21 -109 -58
-78 -114 -114 -275 -176 -115 -43 -201 -87 -226 -114 -16 -18 -17 -25 -7 -42
7 -10 17 -28 24 -38 9 -15 9 -32 -1 -77 -12 -52 -20 -64 -82 -122 -90 -85
-173 -194 -203 -268 -21 -53 -27 -59 -55 -62 -26 -3 -31 -7 -26 -21 4 -13 -3
-24 -20 -35 -20 -13 -23 -21 -16 -34 7 -12 5 -22 -5 -34 -13 -14 -14 -22 -2
-65 28 -98 6 -119 -118 -110 -50 4 -105 15 -141 29 -53 21 -58 26 -61 57 -2
19 4 52 14 73 14 31 15 43 6 64 -16 34 -15 54 5 76 12 13 13 22 6 29 -8 8 -4
26 13 63 13 28 27 66 30 84 3 17 12 32 20 32 20 0 114 97 114 118 0 13 -12 22
-42 32 -24 7 -65 23 -91 36 -41 21 -53 23 -85 14 -20 -5 -73 -10 -116 -10 -78
0 -79 0 -61 -20 17 -18 16 -21 -8 -63 l-26 -44 20 -19 c22 -20 22 -49 1 -109
-6 -16 -14 -43 -19 -60 -6 -20 -22 -37 -51 -53 -33 -18 -50 -38 -73 -83 -20
-41 -38 -63 -57 -70 -57 -22 -276 13 -317 51 -31 28 -66 29 -76 2 -7 -19 -4
-25 16 -34 27 -12 31 -33 14 -71 -12 -27 -55 -37 -239 -58 -91 -10 -110 -9
-143 4 -40 17 -45 28 -22 47 8 7 15 18 15 26 0 16 9 19 150 44 125 22 150 37
150 90 0 37 21 53 62 45 l33 -6 54 133 c29 73 63 155 74 181 l21 48 -54 108
-53 109 17 64 c9 35 14 71 11 79 -6 17 69 92 112 112 17 8 23 21 28 66 3 31 8
66 11 78 2 12 60 81 128 152 119 125 125 133 136 188 16 82 25 108 66 180 30
54 39 63 63 63 26 0 31 7 66 93 74 180 83 197 102 197 10 0 26 -7 36 -14z
m-1845 -19 c8 -9 -4 -30 -45 -82 -78 -100 -86 -122 -87 -247 -1 -102 -2 -108
-31 -150 -35 -49 -92 -84 -150 -93 -86 -13 -165 60 -165 153 0 109 82 198 200
217 71 11 123 48 191 135 34 44 65 80 69 80 4 0 12 -6 18 -13z m3412 -166 c36
-26 36 -55 1 -108 -17 -26 -31 -50 -31 -54 0 -12 -91 -59 -115 -59 -12 0 -28
-6 -34 -14 -15 -17 -111 -207 -111 -218 0 -4 14 -8 31 -8 17 0 62 -15 100 -34
l69 -34 24 29 c14 16 27 37 31 48 3 10 28 28 55 39 28 12 50 26 50 31 0 6 7
11 15 11 8 0 15 9 15 21 0 29 18 59 35 59 8 0 15 -8 15 -19 0 -10 28 -42 61
-71 96 -84 124 -146 77 -171 -48 -24 -68 -51 -68 -91 0 -32 -4 -39 -26 -44
-15 -4 -23 -12 -20 -19 8 -23 -14 -84 -43 -118 -16 -17 -42 -66 -58 -107 -16
-41 -52 -109 -81 -152 -49 -72 -52 -80 -58 -160 -4 -51 -12 -89 -21 -98 -9 -8
-27 -40 -42 -70 -35 -74 -82 -98 -215 -109 -61 -5 -103 -13 -112 -22 -12 -13
-4 -17 56 -33 68 -17 69 -18 64 -46 -6 -27 -4 -29 49 -44 31 -9 63 -24 72 -33
26 -26 15 -93 -24 -140 -23 -28 -31 -48 -31 -78 0 -77 -69 -142 -125 -117 -33
15 -52 78 -36 123 13 38 14 108 2 128 -8 12 -12 12 -25 2 -19 -16 -48 -7 -99
30 -22 16 -46 29 -53 29 -12 0 -69 -72 -95 -120 -7 -14 -34 -92 -59 -175 -44
-142 -47 -150 -73 -153 -21 -3 -27 -9 -27 -27 0 -13 5 -27 10 -30 6 -3 10 -30
10 -59 0 -83 5 -81 -252 -102 -71 -6 -82 -4 -132 20 -90 44 -86 76 14 106 86
26 160 58 160 70 0 6 11 10 24 10 23 0 36 16 36 46 0 7 -15 21 -32 30 -18 9
-34 18 -36 19 -1 1 25 73 57 161 33 87 67 186 76 219 9 36 24 66 37 76 l21 17
-22 28 c-16 20 -20 36 -16 54 11 42 79 123 138 164 55 38 207 96 251 96 13 0
29 7 36 15 7 8 18 15 26 15 18 0 36 36 30 58 -9 28 11 209 30 265 9 29 25 76
35 106 l18 54 -59 106 c-86 155 -112 270 -62 271 25 1 41 15 130 120 80 93 81
95 88 162 l6 67 87 29 c90 31 110 31 151 3z m478 -631 c57 -30 82 -56 82 -83
0 -16 7 -26 20 -30 22 -6 28 -51 9 -63 -7 -4 -9 -22 -5 -49 6 -38 4 -45 -20
-64 l-26 -20 23 -10 c27 -10 101 -30 234 -63 27 -7 54 -25 85 -57 40 -43 52
-49 113 -61 37 -7 67 -14 67 -16 0 -3 -7 -21 -15 -41 -8 -19 -15 -37 -15 -38
0 -1 20 -10 45 -19 54 -21 79 -51 101 -121 10 -29 33 -70 52 -91 19 -21 36
-49 38 -62 1 -13 7 -29 13 -36 12 -14 5 -46 -10 -46 -5 0 -9 -6 -9 -14 0 -8
-4 -18 -10 -21 -14 -9 -81 29 -114 64 -17 17 -37 31 -45 31 -25 0 -39 13 -46
42 -6 23 -3 28 19 34 38 9 27 26 -32 49 -40 16 -55 28 -68 55 -21 45 -19 43
-42 31 -15 -8 -26 -5 -53 14 -18 14 -36 25 -40 25 -4 0 -22 -26 -39 -57 -30
-55 -31 -62 -28 -155 3 -90 5 -99 31 -126 15 -15 24 -31 21 -35 -3 -3 3 -18
14 -34 26 -38 86 -159 102 -206 10 -33 10 -41 -4 -56 -22 -25 -20 -41 7 -41
38 -1 103 -36 130 -71 14 -19 44 -73 67 -121 42 -86 103 -153 170 -188 42 -21
80 -63 80 -87 0 -52 -86 -93 -145 -69 -23 10 -37 27 -53 63 -12 28 -28 55 -36
62 -7 6 -17 26 -20 44 -8 39 -58 80 -183 153 -51 29 -96 63 -108 81 -11 17
-36 36 -55 43 -19 7 -60 37 -91 66 -31 30 -61 54 -68 54 -11 0 -15 7 -46 84
l-15 39 -26 -24 c-14 -13 -37 -43 -52 -66 -21 -33 -33 -43 -54 -43 -20 0 -39
-13 -69 -45 -24 -26 -71 -60 -112 -80 -39 -20 -75 -41 -79 -48 -4 -7 -8 -29
-8 -49 0 -20 -4 -47 -9 -60 -15 -40 -90 -116 -167 -169 -40 -28 -98 -80 -129
-116 l-55 -65 0 -93 0 -93 -31 -11 c-100 -35 -243 10 -224 70 10 29 79 104
121 130 29 18 34 26 34 59 0 38 1 39 38 42 34 3 40 8 69 63 18 33 46 101 63
152 34 99 90 178 136 189 13 3 24 10 24 15 0 4 11 20 25 35 14 15 25 37 25 50
0 47 22 125 46 159 20 30 22 39 12 55 -11 17 -8 24 17 51 17 17 51 48 76 69
86 68 110 103 125 183 8 39 14 73 14 75 0 1 -7 2 -15 2 -12 0 -13 4 -6 18 17
32 -1 45 -46 33 -51 -14 -92 -58 -104 -112 -14 -62 -30 -82 -95 -118 -31 -18
-68 -44 -82 -58 l-25 -25 22 -17 c19 -15 22 -25 19 -71 l-3 -55 -38 -3 c-22
-2 -41 -10 -44 -18 -5 -15 -40 -19 -59 -6 -6 4 -15 18 -19 32 -4 14 -16 35
-27 47 -28 30 -20 53 35 93 48 36 55 48 94 175 15 48 26 65 59 90 27 19 45 43
53 66 14 47 14 49 -6 49 -13 0 -8 9 18 38 34 36 48 61 85 151 18 43 92 111
121 111 7 0 29 7 48 14 25 11 33 19 29 30 -3 9 -12 16 -18 16 -7 0 -18 12 -25
27 l-13 28 -13 -31 c-17 -42 -49 -63 -109 -70 -27 -4 -57 -15 -67 -25 -19 -19
-19 -18 -19 16 0 74 43 121 122 131 46 6 63 24 38 39 -13 8 -13 45 0 45 6 0 4
13 -5 29 -19 37 -13 53 33 85 73 50 113 56 170 26z m-6500 -875 c-29 -27 -90
-84 -135 -127 -70 -64 -80 -78 -68 -88 8 -7 15 -20 15 -29 0 -14 -133 -143
-393 -381 l-48 -43 -54 53 c-30 30 -55 62 -55 71 0 13 253 257 403 389 36 31
38 32 57 15 10 -9 23 -15 28 -14 6 2 67 57 137 122 124 116 127 118 147 101
19 -18 19 -19 -34 -69z m7414 -157 c20 -16 41 -80 33 -100 -9 -23 44 -38 136
-38 96 0 122 -9 139 -50 20 -48 54 -56 115 -28 27 13 63 39 80 58 66 77 93
100 119 100 29 0 29 2 16 -98 -8 -61 -7 -79 6 -104 9 -17 16 -55 16 -85 1 -65
-18 -96 -82 -133 -31 -18 -46 -35 -56 -65 -15 -44 -37 -65 -70 -65 -18 0 -24
-10 -38 -58 -22 -79 -21 -89 14 -119 45 -37 67 -88 85 -193 20 -115 35 -152
80 -199 20 -20 34 -44 33 -54 -4 -28 -159 -107 -209 -107 -58 0 -59 21 -7 83
40 47 52 87 27 87 -5 0 -9 7 -9 15 0 8 9 15 20 15 11 0 20 2 20 5 0 14 -105
233 -128 268 -36 54 -36 54 -63 117 -29 69 -26 65 -44 50 -9 -7 -18 -10 -22
-6 -3 3 -17 -1 -29 -9 -21 -13 -54 -12 -54 3 0 3 9 15 20 27 l20 22 -47 30
c-27 16 -70 38 -98 48 -33 12 -75 43 -131 96 -45 42 -103 91 -127 108 -52 35
-60 52 -56 117 3 44 2 47 -31 61 -19 7 -45 27 -58 43 -13 17 -32 30 -43 30
-23 0 -24 10 -4 36 8 10 15 27 15 36 0 10 17 27 42 39 60 31 114 22 151 -25
17 -21 34 -33 43 -29 17 6 18 35 2 51 -8 8 -8 12 -1 12 6 0 16 -7 23 -15 7 -8
23 -15 36 -15 12 0 34 -4 48 -10 48 -18 74 11 40 44 -12 13 -13 16 -2 16 8 0
21 -6 30 -12z m-9690 -128 c113 -42 154 -55 213 -69 59 -14 85 -35 85 -69 0
-34 -51 -122 -72 -122 -43 0 -50 -138 -13 -280 35 -135 33 -162 -19 -264 -40
-80 -43 -90 -35 -134 7 -38 45 -124 128 -292 4 -8 30 -24 58 -36 l50 -22 39
51 c43 56 250 237 271 237 7 0 13 4 13 9 0 5 21 32 46 60 32 36 74 65 146 103
77 40 120 71 178 128 42 41 84 92 93 112 10 21 31 45 46 53 32 16 41 46 41
130 0 75 21 92 93 76 110 -24 184 -75 162 -111 -3 -5 -27 -24 -53 -41 -72 -49
-122 -100 -122 -126 0 -25 -8 -33 -88 -95 -41 -31 -67 -66 -123 -159 -88 -151
-116 -182 -192 -218 -34 -16 -87 -40 -118 -55 -64 -30 -86 -62 -117 -171 -34
-118 -36 -142 -11 -148 22 -6 22 -6 -7 -40 -16 -18 -43 -54 -61 -80 -20 -29
-52 -58 -85 -76 -30 -17 -67 -44 -83 -61 -16 -16 -35 -30 -42 -30 -7 0 -13 -5
-13 -12 0 -6 -11 -23 -24 -37 -13 -14 -43 -47 -65 -72 -25 -28 -67 -59 -108
-80 -38 -18 -83 -46 -101 -61 -18 -15 -37 -28 -43 -28 -6 0 -8 -9 -4 -20 8
-24 -2 -26 -27 -4 -30 28 -114 23 -168 -8 -25 -15 -64 -30 -87 -34 -38 -6 -43
-9 -43 -34 0 -41 -39 -90 -98 -121 -52 -28 -55 -28 -107 -14 -71 18 -93 30
-135 74 -20 20 -50 44 -68 53 -37 20 -41 33 -11 41 19 5 20 10 14 46 -8 50 6
54 24 6 7 -19 17 -35 23 -35 6 0 8 3 5 6 -3 4 0 16 8 26 7 11 12 25 9 32 -2 6
16 33 41 60 47 51 60 54 135 30 l25 -8 -27 33 c-38 44 -46 96 -21 124 19 21
133 258 133 276 0 5 -7 14 -15 21 -9 8 -15 29 -15 56 0 34 -4 44 -20 49 -31
10 -53 -9 -130 -110 -88 -116 -149 -171 -214 -190 -107 -32 -229 -10 -295 53
-47 45 -59 91 -42 168 14 63 47 101 118 135 45 23 59 24 238 24 248 1 240 0
272 35 14 17 33 30 41 30 7 0 27 8 43 17 24 15 33 15 49 5 27 -17 77 8 82 40
2 19 9 23 38 23 20 1 50 7 68 14 31 13 32 15 33 75 0 33 4 84 10 111 5 28 12
77 15 110 4 33 13 72 20 87 8 15 14 41 14 58 0 18 14 94 30 169 35 154 39 290
10 282 -8 -3 -34 -6 -57 -9 -36 -3 -42 -1 -48 18 -8 25 9 42 32 33 7 -3 20 -2
29 1 12 5 8 15 -23 52 -21 25 -52 54 -70 65 -40 25 -49 53 -29 84 21 32 27 31
128 -5z m7856 -356 c130 -65 137 -219 12 -281 -110 -56 -257 1 -290 114 -11
36 -11 49 4 88 38 98 164 134 274 79z m1203 -55 c11 -11 27 -36 35 -55 8 -18
23 -38 34 -44 11 -6 20 -17 20 -25 0 -8 22 -26 49 -39 97 -50 131 -97 131
-183 0 -26 -5 -33 -31 -42 l-32 -11 7 -62 c5 -37 13 -66 21 -71 8 -4 20 -13
27 -20 45 -44 117 -75 196 -85 56 -8 101 -21 140 -42 31 -16 63 -30 70 -30 6
0 12 -6 12 -14 0 -16 44 -29 70 -21 12 4 30 -5 52 -24 60 -53 211 -91 224 -56
4 10 11 12 22 6 9 -5 39 -7 67 -4 28 3 117 -4 204 -17 172 -25 260 -22 324 11
47 24 58 24 105 0 20 -10 62 -22 92 -26 85 -10 116 -23 150 -62 22 -24 30 -43
28 -61 -3 -26 -5 -27 -73 -28 -70 0 -139 -14 -183 -36 -18 -9 -28 -9 -44 1
-11 7 -21 11 -21 9 -20 -40 -23 -42 -88 -39 -35 1 -92 6 -127 12 -35 5 -66 8
-70 5 -24 -15 -218 -25 -312 -17 -58 5 -107 7 -110 4 -13 -12 149 -146 267
-222 109 -69 132 -88 137 -112 3 -16 12 -29 19 -29 7 0 22 -6 32 -14 18 -13
19 -17 6 -53 -28 -80 -44 -102 -101 -142 -63 -45 -77 -48 -105 -27 -16 11 -19
25 -17 79 2 58 0 66 -17 72 -11 3 -29 17 -39 30 -11 13 -43 34 -73 45 -110 44
-193 95 -270 168 -56 53 -102 85 -161 114 -46 22 -115 64 -155 94 -40 30 -78
54 -86 54 -18 0 -62 34 -147 113 -59 55 -78 67 -106 67 -28 0 -35 4 -40 25 -5
20 -25 35 -83 64 -42 22 -116 69 -165 105 -90 67 -131 81 -143 49 -3 -10 -26
-64 -50 -121 -47 -109 -49 -117 -38 -173 6 -29 3 -40 -20 -67 -29 -35 -90 -58
-128 -48 -15 3 -29 18 -37 36 -19 47 2 85 67 122 58 32 79 65 137 207 31 77
31 76 5 87 -12 6 -31 35 -46 73 l-25 63 22 31 c22 29 22 31 5 44 -11 7 -32 13
-48 13 -25 0 -28 3 -24 20 4 14 -3 29 -20 46 -21 21 -29 23 -59 15 -44 -12
-54 3 -14 24 24 13 30 22 30 49 0 79 87 127 196 107 56 -11 65 -16 90 -58 11
-17 13 -17 40 3 16 12 29 27 30 35 3 35 18 58 52 77 47 27 67 27 93 1z m895
-364 c46 -27 84 -91 84 -141 -1 -38 -31 -103 -61 -131 -80 -73 -225 -67 -287
12 -129 164 78 369 264 260z m-1480 -20 c87 -26 144 -100 144 -189 0 -58 -14
-93 -53 -135 -70 -74 -172 -91 -265 -45 -57 28 -98 84 -108 146 -14 86 57 195
145 222 60 19 77 19 137 1z m2121 -721 c23 -13 50 -24 60 -24 28 0 43 -20 43
-55 0 -43 60 -110 92 -102 117 29 118 29 193 12 88 -19 126 -45 218 -148 68
-76 198 -167 238 -167 10 0 25 -10 33 -22 15 -21 67 -30 186 -32 38 -1 402 50
644 90 103 17 153 21 160 14 13 -13 63 -13 71 -1 3 5 -6 27 -20 47 -30 45 -29
78 2 82 17 3 28 -8 52 -50 17 -29 31 -64 31 -78 0 -24 -5 -27 -71 -38 -55 -9
-75 -10 -86 -1 -10 9 -50 6 -171 -15 -86 -15 -238 -40 -337 -55 -134 -21 -172
-30 -150 -35 32 -8 142 -54 163 -69 7 -6 12 -32 12 -66 0 -98 33 -239 74 -313
20 -36 42 -68 49 -71 7 -3 30 -33 51 -68 45 -74 113 -149 136 -149 28 0 62
-31 57 -52 -4 -14 5 -26 36 -45 23 -15 51 -35 62 -44 18 -16 24 -16 60 -3 46
17 145 10 145 -9 -1 -48 -68 -113 -134 -127 -17 -4 -30 -11 -29 -17 1 -6 -8
-22 -22 -37 -22 -24 -26 -25 -58 -13 -36 13 -117 80 -117 97 0 5 -13 10 -28
10 -29 0 -71 37 -126 112 -26 35 -30 37 -70 32 -25 -4 -52 -1 -65 5 -27 15
-51 72 -51 125 0 45 -31 106 -54 106 -9 0 -19 20 -27 50 -13 51 -58 100 -93
100 -8 0 -24 13 -35 29 -12 16 -55 48 -97 71 -74 40 -76 41 -128 30 -67 -14
-168 1 -241 35 -29 14 -56 25 -61 25 -5 0 -20 8 -33 17 -17 11 -41 16 -76 14
-37 -2 -57 3 -75 17 -14 11 -43 28 -65 40 -22 11 -53 35 -70 52 -16 18 -53 47
-81 65 -28 18 -61 47 -73 63 -28 40 -63 175 -59 231 l3 44 -53 12 c-58 14
-162 62 -162 76 0 5 -9 9 -20 9 -14 0 -20 7 -20 24 0 13 -7 29 -15 36 -22 18
-18 63 7 96 25 33 41 44 83 61 35 13 55 9 112 -23z"/>
<path d="M12948 11709 l-26 -30 50 -25 c27 -14 52 -23 55 -20 3 3 -8 27 -23
54 l-29 50 -27 -29z"/>
<path d="M11066 11468 c-24 -22 -62 -98 -48 -98 4 0 25 11 47 25 22 13 60 34
85 45 49 23 45 32 -22 44 -29 5 -41 2 -62 -16z"/>
<path d="M10270 11336 c0 -7 -10 -20 -21 -28 -19 -12 -21 -20 -15 -52 l7 -38
27 24 c15 14 40 33 55 43 31 20 26 31 -25 53 -23 9 -28 9 -28 -2z"/>
<path d="M6000 11028 c-6 -7 -22 -28 -35 -47 l-24 -34 52 -40 c135 -106 178
-142 193 -165 14 -22 20 -23 62 -17 95 13 132 26 132 46 0 10 5 21 10 24 21
13 8 23 -37 29 -27 3 -79 22 -116 41 -38 19 -70 35 -73 35 -3 0 0 -10 7 -21
20 -38 -13 -17 -41 25 -18 27 -26 34 -28 22 -2 -9 -7 -16 -12 -16 -10 0 -30
64 -30 96 0 31 -40 45 -60 22z"/>
<path d="M8993 11260 c-30 -24 -29 -38 3 -50 41 -16 47 -13 40 22 -9 44 -17
50 -43 28z"/>
<path d="M8993 9137 c-24 -12 -43 -23 -43 -26 0 -6 140 -61 154 -61 4 0 4 5 1
10 -4 6 -10 8 -14 5 -15 -8 -43 33 -37 53 11 34 -15 42 -61 19z"/>
<path d="M8760 8951 c0 -5 -3 -16 -6 -24 -10 -26 29 -37 168 -48 144 -11 187
-21 233 -53 16 -11 37 -19 47 -18 9 2 28 -2 40 -8 22 -11 22 -11 3 4 -11 8
-25 20 -32 26 -31 26 -201 91 -261 100 -37 5 -91 14 -121 20 -66 12 -71 12
-71 1z"/>
<path d="M9381 10007 c-22 -30 -41 -57 -41 -60 0 -4 10 -7 22 -7 12 0 29 -7
39 -16 16 -14 17 -10 24 56 4 39 5 73 2 76 -2 2 -23 -20 -46 -49z"/>
<path d="M11683 9388 c-12 -60 -11 -63 14 -97 24 -31 25 -35 10 -46 -23 -16
-21 -24 13 -65 l29 -35 -2 60 c-2 48 2 66 21 92 30 43 28 53 -12 53 -33 0 -34
1 -41 50 -4 28 -10 50 -14 50 -3 0 -12 -28 -18 -62z"/>
<path d="M5836 9901 c-8 -12 3 -41 15 -41 5 0 9 -10 9 -22 0 -28 59 -103 119
-153 46 -38 81 -59 81 -50 0 9 -101 186 -132 233 -23 33 -35 42 -58 42 -16 0
-31 -4 -34 -9z"/>
<path d="M6655 8294 c-3 -13 -8 -36 -11 -51 -3 -14 -25 -53 -48 -87 -24 -34
-47 -72 -51 -85 -6 -21 -5 -23 11 -17 39 15 72 18 79 7 11 -19 -22 -58 -61
-71 -39 -13 -66 -57 -56 -92 7 -27 22 -18 57 31 17 24 53 68 82 99 59 66 103
159 78 168 -21 9 -19 25 10 64 14 19 22 37 18 41 -5 4 -29 9 -56 12 -44 4 -48
3 -52 -19z"/>
<path d="M8432 8282 c-13 -34 -13 -70 0 -104 14 -36 31 -35 45 2 9 24 8 40 -4
75 -19 56 -28 62 -41 27z"/>
<path d="M8622 6868 c-14 -14 -15 -47 -4 -66 6 -9 12 -5 20 13 20 44 10 79
-16 53z"/>
<path d="M8190 6657 c0 -20 -3 -42 -6 -51 -4 -12 0 -16 15 -16 27 0 36 22 25
62 -13 45 -34 48 -34 5z"/>
<path d="M9547 7646 c4 -7 23 -30 41 -51 27 -30 36 -35 43 -24 14 22 11 31
-18 61 -28 29 -81 41 -66 14z"/>
<path d="M6557 7131 c-17 -6 -16 -9 7 -41 68 -92 115 -251 96 -322 -6 -22 -10
-41 -8 -43 2 -1 28 -10 58 -20 81 -26 147 -62 217 -116 35 -27 65 -49 67 -49
3 0 6 12 8 27 2 21 10 29 36 35 17 5 32 10 32 12 0 24 -50 99 -108 163 -78 87
-86 102 -97 181 -4 28 -13 56 -21 60 -8 4 -16 18 -19 30 -4 23 -36 81 -45 83
-31 5 -209 5 -223 0z"/>
<path d="M6790 5830 c-11 -7 -9 -11 13 -19 38 -15 41 -14 62 9 18 20 17 20
-21 20 -21 0 -46 -4 -54 -10z"/>
<path d="M12551 6703 l-41 -68 33 -11 c74 -26 71 -26 91 11 19 34 19 36 1 75
-31 69 -39 68 -84 -7z"/>
<path d="M13294 6685 c-52 -55 -68 -78 -62 -89 6 -10 0 -29 -17 -55 -14 -23
-25 -42 -25 -43 0 -2 17 -3 38 -4 20 0 69 -4 108 -9 l72 -8 86 83 c47 46 86
88 86 95 0 10 -202 108 -213 104 -1 0 -34 -34 -73 -74z"/>
<path d="M12190 6038 c-43 -103 -88 -218 -94 -240 -5 -21 -3 -28 8 -28 27 0
64 19 101 51 30 27 36 38 31 59 -4 22 0 30 20 41 21 11 23 15 12 24 -15 11
-48 76 -48 93 0 22 -20 22 -30 0z"/>
<path d="M10797 7409 c-27 -20 -27 -22 -11 -40 23 -26 30 -24 43 12 19 56 13
61 -32 28z"/>
<path d="M15825 5390 c-11 -5 -44 -9 -72 -9 -29 -1 -53 -5 -53 -9 0 -12 74
-82 87 -82 6 0 35 -20 65 -45 30 -25 63 -45 72 -45 9 0 30 -7 47 -15 39 -21
48 -13 39 35 -7 38 -37 79 -113 153 -29 28 -40 31 -72 17z"/>
<path d="M5894 4372 c-21 -9 -35 -26 -42 -47 -9 -30 -7 -36 20 -62 60 -57 62
-70 22 -172 -20 -51 -34 -95 -31 -97 3 -3 14 -1 25 5 12 6 52 11 91 11 39 0
91 5 115 12 59 16 70 39 50 110 -41 145 -66 218 -76 224 -6 4 -27 8 -47 9 -20
1 -49 6 -66 12 -23 8 -38 7 -61 -5z"/>
<path d="M15096 5067 c-3 -13 -17 -35 -31 -49 -22 -23 -23 -27 -10 -38 13 -11
22 -10 51 3 19 10 48 17 64 17 18 0 30 5 30 13 -1 16 -25 47 -37 47 -6 0 -16
7 -23 15 -18 22 -37 18 -44 -8z"/>
</g>
</svg>
